<svg width="78" height="78" viewBox="0 0 78 78" fill="none" xmlns="http://www.w3.org/2000/svg">
<circle cx="38.7764" cy="38.7764" r="38.7764" fill="#E4EEFF"/>
<g clip-path="url(#clip0_1478_34322)">
<rect width="45.4814" height="45.4814" transform="translate(15.9648 16.2366)" fill="#E4EEFF"/>
<g clip-path="url(#clip1_1478_34322)">
<path d="M28.5506 48.75H26.7259C25.1509 48.75 24 47.4428 24 45.9994C24 45.6056 24.0855 45.2017 24.2711 44.8102L28.482 37.0973C29.6531 34.638 30.75 31.9436 30.75 29.2144V28.5H33L32.9932 29.625C32.892 32.6738 31.6905 35.5931 30.5126 38.0636L26.3029 45.7777C26.1375 46.1186 26.3884 46.5 26.7259 46.5H28.8487C28.4527 47.5508 28.4775 48.0637 28.5506 48.75ZM30.75 26.25H37.5C38.1221 26.25 38.625 25.746 38.625 25.125C38.625 24.504 38.1221 24 37.5 24H30.75C30.1279 24 29.625 24.504 29.625 25.125C29.625 25.746 30.1279 26.25 30.75 26.25ZM44.25 27.375H37.5C36.8779 27.375 36.375 27.879 36.375 28.5C36.375 29.121 36.8779 29.625 37.5 29.625H44.25C44.8721 29.625 45.375 29.121 45.375 28.5C45.375 27.879 44.8721 27.375 44.25 27.375ZM51 48.2483C51 49.6928 49.8491 51 48.273 51H33.4759C31.9009 51 30.75 49.6928 30.75 48.2494C30.75 47.8556 30.8355 47.4517 31.0211 47.0602C33.7043 42.8617 37.5 37.9151 37.5 32.5894V31.875H39.75L39.7433 33C39.6263 36.4931 38.0648 39.7556 36.9971 42H42.2464L46.59 48.75H48.273C48.6206 48.75 48.858 48.3653 48.6971 48.0255C45.951 43.7314 42.1946 38.8635 42 33V31.875H44.25V32.5894C44.25 37.9129 48.0233 42.828 50.7289 47.0591C50.9145 47.4506 51 47.8545 51 48.2483Z" fill="#4285F4"/>
</g>
</g>
<defs>
<clipPath id="clip0_1478_34322">
<rect width="45.4814" height="45.4814" fill="white" transform="translate(15.9648 16.2366)"/>
</clipPath>
<clipPath id="clip1_1478_34322">
<rect width="27" height="27" fill="white" transform="translate(24 24)"/>
</clipPath>
</defs>
</svg>
