<?xml version="1.0" encoding="UTF-8"?>
<svg version="1.1" xmlns="http://www.w3.org/2000/svg" width="38" height="38">
<path d="M0 0 C0 6.6 0 13.2 0 20 C1.98 20 3.96 20 6 20 C6 20.99 6 21.98 6 23 C2.04 23 -1.92 23 -6 23 C-6.99 21.02 -7.98 19.04 -9 17 C-10.98 21.29 -12.96 25.58 -15 30 C-9.12456257 32.29509275 -4.15497649 34.21429032 2 32 C5.6546298 29.97844297 8.20882209 27.70166042 9.984375 23.8828125 C11.34392186 19.09123879 11.14796688 15.28990456 9.13671875 10.73046875 C7.25019068 7.85853771 5.00765203 6.60408108 2 5 C2.66 3.68 3.32 2.36 4 1 C5.32 1 6.64 1 8 1 C15.97250549 14.48255515 15.97250549 14.48255515 14.515625 21.25 C12.8295616 26.94514749 10.5108965 30.93220289 5.875 34.75 C0.2759702 37.18436078 -5.54507627 37.80666083 -11.375 35.8125 C-14.55561438 34.42178602 -16.76598178 32.69943868 -19 30 C-17.6077541 25.37324343 -15.70479016 21.35313769 -13.375 17.125 C-12.74335938 15.97257812 -12.11171875 14.82015625 -11.4609375 13.6328125 C-10.97882812 12.76398437 -10.49671875 11.89515625 -10 11 C-9.01 11 -8.02 11 -7 11 C-6.01 12.98 -5.02 14.96 -4 17 C-3.67 12.05 -3.34 7.1 -3 2 C-8.98232014 3.69647885 -13.1264283 4.87321392 -17 10 C-18.21223242 12.64040909 -19.10605197 15.22405613 -20 18 C-19.01 18.33 -18.02 18.66 -17 19 C-17.33 20.32 -17.66 21.64 -18 23 C-19.9375 23.5625 -19.9375 23.5625 -22 24 C-23 23 -23 23 -23.25 19.4375 C-23.1436011 14.03050129 -22.08113014 9.37543137 -18.453125 5.234375 C-12.34977811 -0.3288527 -8.37071415 -1.19581631 0 0 Z M5 3 C6 5 6 5 6 5 Z M-21 20 C-20.67 20.66 -20.34 21.32 -20 22 C-19.67 21.34 -19.34 20.68 -19 20 C-19.66 20 -20.32 20 -21 20 Z " fill="#0056AD" transform="translate(23,1)"/>
</svg>
