<svg width="380" height="379" viewBox="0 0 380 379" fill="none" xmlns="http://www.w3.org/2000/svg">
<g clip-path="url(#clip0_1133_10824)">
<path d="M379.5 0H0.5V379H379.5V0Z" fill="#D4E0FF"/>
<g clip-path="url(#clip1_1133_10824)">
<path d="M327.46 261.496H199.853C197.572 261.496 195.715 259.639 195.715 257.358V71.4862C195.715 69.2044 197.572 67.3477 199.853 67.3477H327.46C329.742 67.3477 331.599 69.2037 331.599 71.4862V257.357C331.599 259.639 329.742 261.496 327.46 261.496ZM199.853 67.5242C197.668 67.5242 195.891 69.3019 195.891 71.4862V257.357C195.891 259.542 197.669 261.319 199.853 261.319H327.46C329.645 261.319 331.422 259.541 331.422 257.357V71.4862C331.422 69.3019 329.644 67.5242 327.46 67.5242H199.853Z" fill="#F0F0F0"/>
<path d="M180.312 261.496H52.705C50.4232 261.496 48.5664 259.639 48.5664 257.358V71.4862C48.5664 69.2044 50.4225 67.3477 52.705 67.3477H180.312C182.593 67.3477 184.45 69.2037 184.45 71.4862V257.357C184.451 259.639 182.594 261.496 180.312 261.496ZM52.705 67.5242C50.5206 67.5242 48.7429 69.3019 48.7429 71.4862V257.357C48.7429 259.542 50.5206 261.319 52.705 261.319H180.312C182.497 261.319 184.274 259.541 184.274 257.357V71.4862C184.274 69.3019 182.496 67.5242 180.312 67.5242H52.705Z" fill="#F0F0F0"/>
<path d="M367.055 304.611H14.0547V304.787H367.055V304.611Z" fill="#E0E0E0"/>
<path d="M141.438 85.2815H163.727C164.312 85.2815 164.786 84.8071 164.786 84.2225V79.1908C164.786 78.6063 164.312 78.1318 163.727 78.1318H141.438C140.853 78.1318 140.379 78.6063 140.379 79.1908V84.2225C140.379 84.8071 140.853 85.2815 141.438 85.2815Z" fill="#F0F0F0"/>
<path d="M128.125 94.3997H150.415C150.999 94.3997 151.474 93.9252 151.474 93.3407V88.309C151.474 87.7244 150.999 87.25 150.415 87.25H128.125C127.541 87.25 127.066 87.7244 127.066 88.309V93.3407C127.066 93.9259 127.541 94.3997 128.125 94.3997Z" fill="#F0F0F0"/>
<path d="M82.3052 217.803H60.016C59.4315 217.803 58.957 217.328 58.957 216.744V211.712C58.957 211.127 59.4315 210.653 60.016 210.653H82.3052C82.8897 210.653 83.3642 211.127 83.3642 211.712V216.744C83.3642 217.328 82.8904 217.803 82.3052 217.803Z" fill="#F0F0F0"/>
<path d="M95.6177 226.921H73.3285C72.744 226.921 72.2695 226.446 72.2695 225.862V220.83C72.2695 220.245 72.744 219.771 73.3285 219.771H95.6177C96.2022 219.771 96.6767 220.245 96.6767 220.83V225.862C96.6767 226.447 96.2029 226.921 95.6177 226.921Z" fill="#F0F0F0"/>
<path d="M234.137 84.2966H211.848C211.263 84.2966 210.789 83.8222 210.789 83.2376V78.206C210.789 77.6214 211.263 77.147 211.848 77.147H234.137C234.722 77.147 235.196 77.6214 235.196 78.206V83.2376C235.196 83.8229 234.722 84.2966 234.137 84.2966Z" fill="#F0F0F0"/>
<path d="M260.762 84.2966H238.473C237.888 84.2966 237.414 83.8222 237.414 83.2376V78.206C237.414 77.6214 237.888 77.147 238.473 77.147H260.762C261.347 77.147 261.821 77.6214 261.821 78.206V83.2376C261.821 83.8229 261.347 84.2966 260.762 84.2966Z" fill="#F0F0F0"/>
<path d="M247.45 93.4153H225.161C224.576 93.4153 224.102 92.9409 224.102 92.3563V87.3246C224.102 86.7401 224.576 86.2656 225.161 86.2656H247.45C248.034 86.2656 248.509 86.7401 248.509 87.3246V92.3563C248.509 92.9409 248.035 93.4153 247.45 93.4153Z" fill="#F0F0F0"/>
<path d="M323.411 79.5825H273.766V200.203H323.411V79.5825Z" fill="#F0F0F0"/>
<path d="M320.381 82.6133H276.793V197.176H320.381V82.6133Z" fill="#FAFAFA"/>
<path d="M320.381 87.52V96.1685L276.793 139.764V131.108L320.381 87.52Z" fill="white"/>
<path d="M320.381 117.433V129.633L276.793 173.221V161.014L320.381 117.433Z" fill="white"/>
<path d="M300.09 79.5825H297.09V200.203H300.09V79.5825Z" fill="#F0F0F0"/>
<path d="M323.411 138.352H273.766V141.433H323.411V138.352Z" fill="#F0F0F0"/>
<path d="M108.602 79.5825H58.957V200.203H108.602V79.5825Z" fill="#F0F0F0"/>
<path d="M105.573 82.6133H61.9844V197.176H105.573V82.6133Z" fill="#FAFAFA"/>
<path d="M105.573 87.52V96.1685L61.9844 139.764V131.108L105.573 87.52Z" fill="white"/>
<path d="M105.573 117.433V129.633L61.9844 173.221V161.014L105.573 117.433Z" fill="white"/>
<path d="M85.2817 79.5825H82.2812V200.203H85.2817V79.5825Z" fill="#F0F0F0"/>
<path d="M108.602 138.352H58.957V141.433H108.602V138.352Z" fill="#F0F0F0"/>
<path d="M331.943 256.642L327.974 269.833L327.442 271.601L325.367 278.496C324.791 280.406 323.029 281.718 321.036 281.718H209.393C207.395 281.718 205.638 280.406 205.062 278.496L202.987 271.601L202.454 269.833L198.485 256.642C198.167 255.588 198.958 254.534 200.05 254.534H330.372C331.47 254.535 332.255 255.589 331.943 256.642Z" fill="#F0F0F0"/>
<path d="M327.972 269.833L327.44 271.601H202.985L202.453 269.833H327.972Z" fill="#E0E0E0"/>
<path d="M313.79 289.692H214.969V291.944H313.79V289.692Z" fill="#E0E0E0"/>
<path d="M219.74 281.717L206.047 304.611H212.01L229.019 281.717H219.74Z" fill="#E0E0E0"/>
<path d="M309.441 281.717L323.133 304.611H317.17L300.16 281.717H309.441Z" fill="#E0E0E0"/>
<path d="M306.758 241.259V226.195C306.758 226.001 306.602 225.845 306.408 225.845C306.215 225.845 306.059 226.001 306.059 226.195V241.259H306.758Z" fill="#E0E0E0"/>
<path d="M297.1 242.89L297.433 244.127L297.505 244.391L300.241 254.535H312.578L315.315 244.391L315.385 244.127L315.719 242.89L315.79 242.628L316.159 241.259H296.66L297.029 242.628L297.1 242.89Z" fill="#E0E0E0"/>
<path d="M305.159 231.182C305.58 231.284 305.99 231.108 306.217 230.788C306.297 230.678 306.355 230.553 306.384 230.415C306.4 230.345 306.407 230.274 306.407 230.198C306.407 229.962 306.325 229.734 306.174 229.553C304.838 227.936 298.075 220.113 294.905 223.385C291.074 227.336 301.463 230.282 305.159 231.182Z" fill="#F0F0F0"/>
<path d="M299.178 226.622L306.219 230.788C306.298 230.678 306.356 230.553 306.385 230.415L299.386 226.272C299.288 226.215 299.164 226.247 299.106 226.344C299.049 226.441 299.082 226.564 299.178 226.622Z" fill="#E0E0E0"/>
<path d="M306.406 234.068C306.406 234.143 306.413 234.215 306.43 234.285C306.46 234.422 306.517 234.548 306.596 234.657C306.826 234.978 307.236 235.154 307.657 235.051C311.352 234.153 321.74 231.208 317.908 227.255C314.74 223.985 307.977 231.806 306.639 233.423C306.489 233.604 306.406 233.834 306.406 234.068Z" fill="#F0F0F0"/>
<path d="M306.43 234.285C306.46 234.422 306.517 234.548 306.596 234.657L313.639 230.491C313.733 230.436 313.766 230.311 313.709 230.214C313.653 230.117 313.528 230.085 313.431 230.143L306.43 234.285Z" fill="#E0E0E0"/>
<path d="M305.638 226.137C305.666 226.371 305.774 226.588 305.944 226.751C305.998 226.801 306.055 226.846 306.117 226.884C306.237 226.957 306.369 227.002 306.504 227.02C306.894 227.074 307.302 226.898 307.519 226.524C309.417 223.23 314.448 213.677 308.944 213.723C304.39 213.763 305.389 224.054 305.638 226.137Z" fill="#F0F0F0"/>
<path d="M306.117 226.884C306.237 226.957 306.37 227.002 306.504 227.02L308.343 219.048C308.369 218.941 308.3 218.831 308.191 218.804C308.081 218.781 307.972 218.848 307.947 218.958L306.117 226.884Z" fill="#E0E0E0"/>
<path d="M305.159 239.488C305.58 239.59 305.99 239.414 306.217 239.094C306.297 238.985 306.355 238.86 306.384 238.721C306.4 238.651 306.407 238.58 306.407 238.504C306.407 238.27 306.325 238.041 306.174 237.86C304.838 236.242 298.075 228.421 294.905 231.692C291.074 235.644 301.463 238.588 305.159 239.488Z" fill="#F0F0F0"/>
<path d="M299.178 234.93L306.219 239.094C306.298 238.985 306.356 238.86 306.385 238.721L299.386 234.579C299.288 234.521 299.164 234.554 299.106 234.651C299.049 234.747 299.082 234.873 299.178 234.93Z" fill="#E0E0E0"/>
<path d="M344.245 335.54C344.245 338.009 276.052 340.011 191.933 340.011C107.814 340.011 39.6211 338.009 39.6211 335.54C39.6211 333.07 107.814 331.068 191.933 331.068C276.052 331.068 344.245 333.07 344.245 335.54Z" fill="#F5F5F5"/>
<path d="M232.386 229.328H132.363C115.98 229.328 102.699 216.047 102.699 199.664C102.699 183.282 115.98 170.001 132.363 170.001H232.386C248.768 170.001 262.049 183.282 262.049 199.664C262.049 216.047 248.768 229.328 232.386 229.328Z" fill="#407BFF"/>
<path opacity="0.7" d="M232.386 229.328H132.363C115.98 229.328 102.699 216.047 102.699 199.664C102.699 183.282 115.98 170.001 132.363 170.001H232.386C248.768 170.001 262.049 183.282 262.049 199.664C262.049 216.047 248.768 229.328 232.386 229.328Z" fill="white"/>
<path opacity="0.3" d="M132.362 227.209C117.173 227.209 104.816 214.852 104.816 199.663C104.816 184.475 117.173 172.118 132.362 172.118H232.385C247.574 172.118 259.931 184.475 259.931 199.663C259.931 214.852 247.574 227.209 232.385 227.209H132.362Z" fill="white"/>
<path d="M232.362 226.331C247.09 226.331 259.029 214.392 259.029 199.664C259.029 184.936 247.09 172.997 232.362 172.997C217.635 172.997 205.695 184.936 205.695 199.664C205.695 214.392 217.635 226.331 232.362 226.331Z" fill="#407BFF"/>
<path d="M244.156 207.319C245.302 208.464 245.302 210.319 244.156 211.458C243.584 212.03 242.836 212.316 242.087 212.316C241.339 212.316 240.584 212.03 240.018 211.458L232.359 203.799L224.701 211.458C224.134 212.03 223.38 212.316 222.631 212.316C221.883 212.316 221.135 212.03 220.562 211.458C219.417 210.319 219.417 208.464 220.562 207.319L228.221 199.667L220.562 192.008C219.417 190.863 219.417 189.008 220.562 187.87C221.707 186.724 223.562 186.724 224.701 187.87L232.359 195.528L240.018 187.87C241.157 186.724 243.011 186.724 244.156 187.87C245.302 189.008 245.302 190.863 244.156 192.008L236.498 199.667L244.156 207.319Z" fill="white"/>
<path d="M232.386 163.199H132.363C115.98 163.199 102.699 149.919 102.699 133.536C102.699 117.153 115.98 103.873 132.363 103.873H232.386C248.768 103.873 262.049 117.153 262.049 133.536C262.049 149.918 248.768 163.199 232.386 163.199Z" fill="#407BFF"/>
<path opacity="0.2" d="M132.362 161.081C117.173 161.081 104.816 148.724 104.816 133.536C104.816 118.347 117.173 105.991 132.362 105.991H232.385C247.574 105.991 259.931 118.348 259.931 133.536C259.931 148.725 247.574 161.081 232.385 161.081H132.362Z" fill="black"/>
<path d="M161.276 160.203C176.004 160.203 187.943 148.263 187.943 133.536C187.943 118.808 176.004 106.869 161.276 106.869C146.549 106.869 134.609 118.808 134.609 133.536C134.609 148.263 146.549 160.203 161.276 160.203Z" fill="#407BFF"/>
<path opacity="0.7" d="M161.276 160.203C176.004 160.203 187.943 148.263 187.943 133.536C187.943 118.808 176.004 106.869 161.276 106.869C146.549 106.869 134.609 118.808 134.609 133.536C134.609 148.263 146.549 160.203 161.276 160.203Z" fill="white"/>
<path d="M156.612 142.854C155.969 142.854 155.35 142.598 154.895 142.143L148.286 135.534C147.337 134.586 147.337 133.047 148.286 132.098C149.235 131.149 150.773 131.149 151.722 132.098L156.612 136.989L170.833 122.769C171.781 121.821 173.32 121.821 174.268 122.769C175.217 123.718 175.217 125.256 174.268 126.205L158.331 142.143C157.874 142.598 157.256 142.854 156.612 142.854Z" fill="white"/>
<path d="M119.971 331.483H110.148V335.886H119.971V331.483Z" fill="#263238"/>
<path d="M134.189 307.607L132.838 311.308L132.567 312.058L132.417 312.466L132.188 313.095L131.316 315.467L131.259 315.624L131.116 316.025L130.666 317.254L130.159 318.647L129.988 319.118L129.966 319.168L129.723 319.826L128.537 323.069L128.28 323.784L125.894 330.321L125.708 330.814L125.237 332.107C125.065 332.572 124.772 332.971 124.401 333.279C124.251 333.394 124.094 333.501 123.922 333.586C123.601 333.751 123.251 333.85 122.88 333.872C122.822 333.872 122.765 333.879 122.708 333.879H107.297C107.047 333.879 106.805 333.843 106.569 333.779C106.383 333.722 106.197 333.651 106.026 333.557C105.454 333.25 104.997 332.743 104.768 332.107L102.832 326.813L102.589 326.156L101.224 322.412L101.074 322.004L101.003 321.805L100.767 321.161L99.4241 317.482L99.3386 317.253L99.2673 317.067L98.6884 315.467L98.4244 314.745L98.2097 314.159L98.0099 313.623L97.8603 313.209L97.8172 313.095L97.1811 311.352L97.167 311.308L97.0095 310.88L95.8164 307.608H134.189V307.607Z" fill="#263238"/>
<path opacity="0.2" d="M132.838 311.308L132.566 312.058L132.416 312.465L132.187 313.094H97.8143L97.1789 311.351L97.1641 311.308H132.838Z" fill="white"/>
<path opacity="0.2" d="M131.317 315.466L131.26 315.623L131.117 316.023L130.666 317.252H99.3377L99.2664 317.066L98.6875 315.466H131.317Z" fill="white"/>
<path d="M102.953 291.477C102.953 291.477 108.36 289.505 109.76 295.23C111.159 300.955 115.166 299.477 115.924 298.223C117.418 295.75 117.627 286.806 115.057 286.267C111.988 285.623 104.035 288.869 102.953 291.477Z" fill="#407BFF"/>
<g opacity="0.5">
<path d="M102.953 291.477C102.953 291.477 108.36 289.505 109.76 295.23C111.159 300.955 115.166 299.477 115.924 298.223C117.418 295.75 117.627 286.806 115.057 286.267C111.988 285.623 104.035 288.869 102.953 291.477Z" fill="black"/>
</g>
<path d="M106.177 284.404C106.177 284.404 100.713 282.642 98.6781 288.367C96.6427 294.092 98.6781 308.161 98.6781 308.161C98.6781 308.161 103.386 306.687 104.912 301.853C106.439 297.018 106.28 286.395 115.059 286.268L106.177 284.404Z" fill="#407BFF"/>
<path opacity="0.2" d="M107.291 284.745C102.542 287.51 101.779 293.372 101.298 298.332C101.273 298.59 101.676 298.588 101.7 298.332C102.166 293.523 102.88 287.779 107.493 285.092C107.718 284.962 107.515 284.614 107.291 284.745Z" fill="black"/>
<path d="M125.194 253.985C125.194 253.985 119.87 251.795 118.24 257.459C116.61 263.122 112.777 262.667 112.092 260.291C111.292 257.515 110.721 248.724 113.31 248.289C116.404 247.769 124.219 251.335 125.194 253.985Z" fill="#407BFF"/>
<g opacity="0.5">
<path d="M125.194 253.985C125.194 253.985 119.87 251.795 118.24 257.459C116.61 263.122 112.777 262.667 112.092 260.291C111.292 257.515 110.721 248.724 113.31 248.289C116.404 247.769 124.219 251.335 125.194 253.985Z" fill="black"/>
</g>
<path d="M122.258 246.786C122.258 246.786 127.789 245.246 129.59 251.05C131.393 256.853 128.789 270.828 128.789 270.828C128.789 270.828 124.145 269.164 122.816 264.272C121.485 259.379 122.075 248.771 113.309 248.289L122.258 246.786Z" fill="#407BFF"/>
<g opacity="0.2">
<path d="M120.683 247.329C125.727 251.256 126.564 257.963 127.186 263.887C127.213 264.142 127.616 264.145 127.589 263.887C126.956 257.863 126.095 251.037 120.967 247.044C120.766 246.886 120.479 247.169 120.683 247.329Z" fill="black"/>
</g>
<path d="M130.854 280.255C130.854 280.255 127.53 279.254 124.047 284.008C120.692 288.589 119.353 289.127 117.078 287.346C114.803 285.564 116.179 275.584 118.749 275.046C121.82 274.401 129.773 277.647 130.854 280.255Z" fill="#407BFF"/>
<g opacity="0.5">
<path d="M130.854 280.255C130.854 280.255 127.53 279.254 124.047 284.008C120.692 288.589 119.353 289.127 117.078 287.346C114.803 285.564 116.179 275.584 118.749 275.046C121.82 274.401 129.773 277.647 130.854 280.255Z" fill="black"/>
</g>
<path d="M130.838 272.35C130.838 272.35 138.637 269.834 141.542 278.006C144.447 286.177 141.542 306.259 141.542 306.259C141.542 306.259 134.823 304.154 132.644 297.254C130.465 290.353 131.029 275.311 118.5 275.13C121.015 274.365 125.911 273.358 130.838 272.35Z" fill="#407BFF"/>
<g opacity="0.2">
<path d="M128.683 273.22C134.976 276.481 139.097 283.302 139.047 290.39C139.045 290.649 139.448 290.65 139.45 290.39C139.5 283.167 135.3 276.195 128.886 272.871C128.657 272.753 128.453 273.1 128.683 273.22Z" fill="black"/>
</g>
<path d="M99.1562 266.985C99.1562 266.985 104.563 265.013 105.963 270.738C107.362 276.463 114.404 278.649 115.126 275.852C115.897 272.866 114.193 262.232 111.623 261.692C108.552 261.048 100.237 264.377 99.1562 266.985Z" fill="#407BFF"/>
<g opacity="0.5">
<path d="M99.1562 266.985C99.1562 266.985 104.563 265.013 105.963 270.738C107.362 276.463 114.404 278.649 115.126 275.852C115.897 272.866 114.193 262.232 111.623 261.692C108.552 261.048 100.237 264.377 99.1562 266.985Z" fill="black"/>
</g>
<path d="M99.1745 259.08C99.1745 259.08 91.3768 256.564 88.4709 264.736C85.5657 272.907 88.4709 292.989 88.4709 292.989C88.4709 292.989 95.1892 290.884 97.3686 283.984C99.5473 277.084 99.3207 261.922 111.85 261.741L99.1745 259.08Z" fill="#407BFF"/>
<path opacity="0.2" d="M102.304 259.777C98.9297 259.944 96.0414 262.06 94.1571 264.764C91.8591 268.061 91.0705 272.135 90.3129 276.005C90.2635 276.258 90.6518 276.366 90.7012 276.112C91.4157 272.461 92.1478 268.661 94.1698 265.471C95.956 262.653 98.8718 260.35 102.304 260.18C102.561 260.167 102.563 259.764 102.304 259.777Z" fill="black"/>
<path d="M114.614 307.607H115.987C119.44 292.988 117.115 277.33 114.507 266.647C111.612 254.787 107.752 246.325 107.713 246.241C107.559 245.906 107.162 245.759 106.827 245.914C106.492 246.067 106.345 246.464 106.499 246.8C106.537 246.883 110.352 255.25 113.215 266.992C115.804 277.599 118.111 293.169 114.614 307.607Z" fill="#407BFF"/>
<path d="M264.243 317.746V330.01L259.289 330.405L256.863 318.922L264.243 317.746Z" fill="#FF8B7B"/>
<path d="M260.728 329.25C260.728 329.25 259.171 326.259 258.252 326.579C257.333 326.898 256.958 330.526 256.958 330.526C256.958 330.526 251.966 332.195 250.57 332.284C249.175 332.372 248.047 333.163 247.867 335.886H264.916C264.916 335.886 264.801 329.735 264.77 328.68C264.738 327.625 263.238 328.944 263.238 328.944L260.728 329.25Z" fill="#263238"/>
<path d="M264.73 331.018C263.537 331.746 262.977 333.191 263.803 334.613C263.895 334.77 263.679 334.908 263.587 334.75C262.683 333.194 263.241 331.591 264.564 330.785C264.704 330.698 264.87 330.932 264.73 331.018Z" fill="white"/>
<path d="M264.753 334.907C260.296 334.953 255.837 335 251.38 335.046C250.343 335.057 249.307 335.068 248.27 335.079C248.096 335.081 248.061 334.81 248.236 334.808C252.694 334.762 257.152 334.715 261.61 334.669C262.646 334.657 263.682 334.647 264.719 334.636C264.893 334.635 264.927 334.905 264.753 334.907Z" fill="white"/>
<path d="M257.695 331.598C256.994 330.763 255.975 330.529 255.207 331.158C255.08 331.262 254.916 331.027 255.041 330.924C255.92 330.204 257.116 330.515 257.911 331.462C258.031 331.604 257.813 331.738 257.695 331.598Z" fill="white"/>
<path d="M256.284 332.041C255.584 331.207 254.565 330.972 253.797 331.601C253.67 331.705 253.506 331.47 253.63 331.368C254.509 330.648 255.706 330.958 256.5 331.905C256.62 332.046 256.403 332.182 256.284 332.041Z" fill="white"/>
<path d="M254.823 332.484C254.123 331.65 253.104 331.415 252.336 332.044C252.209 332.148 252.045 331.913 252.17 331.811C253.049 331.091 254.245 331.401 255.039 332.348C255.159 332.49 254.941 332.625 254.823 332.484Z" fill="white"/>
<path d="M267.215 196.188C267.074 198.377 267.374 205.098 267.078 208.705C266.52 215.582 265.772 224.499 265.179 233.429C264.487 243.772 263.992 254.129 264.24 261.316C264.875 279.771 264.734 321.595 264.734 321.595H256.728C256.728 321.595 247.324 280.025 245.566 261.316C244.097 245.806 244.876 205.846 245.123 196.188H267.215Z" fill="#407BFF"/>
<path opacity="0.3" d="M267.215 196.188C267.074 198.377 267.374 205.098 267.078 208.705C266.52 215.582 265.772 224.499 265.179 233.429C264.487 243.772 263.992 254.129 264.24 261.316C264.875 279.771 264.734 321.595 264.734 321.595H256.728C256.728 321.595 247.324 280.025 245.566 261.316C244.097 245.806 244.876 205.846 245.123 196.188H267.215Z" fill="white"/>
<path opacity="0.2" d="M267.078 208.705C266.52 215.582 265.772 224.499 265.179 233.429C261.239 221.766 264.896 204.145 264.896 204.145L267.078 208.705Z" fill="black"/>
<path d="M265.429 321.879H256.033L255.344 318.883L265.673 318.757L265.429 321.879Z" fill="#407BFF"/>
<path d="M308.442 315.458L310.313 327.579L305.478 328.726L301.328 317.747L308.442 315.458Z" fill="#FF8B7B"/>
<path d="M306.726 327.365C306.726 327.365 304.73 324.647 303.87 325.103C303.01 325.559 303.194 329.201 303.194 329.201C303.194 329.201 298.515 331.613 297.149 331.913C295.784 332.213 294.789 333.167 295.028 335.886L311.876 333.284C311.876 333.284 310.824 327.222 310.632 326.184C310.44 325.146 309.158 326.678 309.158 326.678L306.726 327.365Z" fill="#263238"/>
<path d="M310.95 328.501C309.882 329.401 309.55 330.916 310.583 332.195C310.697 332.337 310.505 332.506 310.39 332.363C309.259 330.963 309.565 329.295 310.749 328.295C310.876 328.189 311.076 328.395 310.95 328.501Z" fill="white"/>
<path d="M311.569 332.341C307.17 333.067 302.771 333.794 298.373 334.52C297.351 334.689 296.328 334.858 295.305 335.027C295.134 335.055 295.058 334.793 295.23 334.765C299.628 334.039 304.027 333.312 308.426 332.586C309.448 332.417 310.471 332.248 311.493 332.079C311.665 332.05 311.74 332.313 311.569 332.341Z" fill="white"/>
<path d="M304.089 330.148C303.269 329.43 302.227 329.354 301.564 330.093C301.454 330.215 301.255 330.008 301.363 329.887C302.122 329.042 303.352 329.166 304.282 329.981C304.422 330.102 304.227 330.269 304.089 330.148Z" fill="white"/>
<path d="M302.761 330.801C301.941 330.083 300.898 330.007 300.236 330.746C300.126 330.868 299.927 330.661 300.035 330.541C300.794 329.695 302.024 329.819 302.953 330.633C303.093 330.755 302.899 330.922 302.761 330.801Z" fill="white"/>
<path d="M301.386 331.462C300.566 330.744 299.523 330.669 298.861 331.407C298.751 331.529 298.552 331.323 298.66 331.202C299.419 330.356 300.649 330.48 301.579 331.295C301.718 331.416 301.524 331.584 301.386 331.462Z" fill="white"/>
<path d="M280.247 262.933C285.194 281.058 301.828 320.261 301.828 320.261L309.717 318.887C309.717 318.887 301.5 278.098 297.712 260.03C294.295 243.723 290.542 206.27 289.329 195.118L262.852 197.501C264.262 207.054 276.141 247.898 280.247 262.933Z" fill="#407BFF"/>
<path opacity="0.3" d="M280.247 262.933C285.194 281.058 301.828 320.261 301.828 320.261L309.717 318.887C309.717 318.887 301.5 278.098 297.712 260.03C294.295 243.723 290.542 206.27 289.329 195.118L262.852 197.501C264.262 207.054 276.141 247.898 280.247 262.933Z" fill="white"/>
<path d="M310.45 319.051L301.193 320.662L300 317.828L310.315 315.945L310.45 319.051Z" fill="#407BFF"/>
<path d="M290.872 195.117C290.976 196.286 289.741 197.664 288.576 197.713L246.336 199.662C245.1 199.718 243.653 198.869 243.688 197.634C244.112 183.062 247.508 132.93 248.651 129.768C250.063 125.885 257.879 124.487 261.296 124.176C266.217 123.724 271.9 123.872 277.491 124.141C280.125 124.268 282.525 124.501 284.516 124.748C287.545 125.122 289.663 127.932 289.176 130.94C288.258 136.616 287.714 142.278 287.439 147.785C287.425 148.06 287.411 148.328 287.397 148.597C287.305 150.496 287.22 152.374 287.213 154.223C287.206 154.591 287.199 154.965 287.206 155.332C287.39 174.203 289.837 183.448 290.872 195.117Z" fill="#263238"/>
<path opacity="0.2" d="M287.438 147.785C287.424 148.06 287.41 148.328 287.396 148.597C287.304 150.496 287.219 152.374 287.212 154.223L279.086 138.275L287.438 147.785Z" fill="black"/>
<path d="M264.161 95.633C264.161 95.633 256.835 92.1835 253.811 93.8892C251.43 95.232 253.019 97.9925 253.019 97.9925C253.019 97.9925 248.547 98.1308 248.547 100.955C248.547 103.352 250.954 103.488 250.954 103.488C250.954 103.488 249.369 106.219 251.113 106.843C252.857 107.467 254.895 103.869 254.895 103.869L264.161 95.633Z" fill="#263238"/>
<path d="M271.879 109.793C271.879 109.793 273.802 112.581 273.417 113.355C272.839 114.512 271.294 113.194 271.294 113.194C271.294 113.194 272.68 115.095 271.294 116.01C269.909 116.924 269 112.287 269 112.287L271.879 109.793Z" fill="#263238"/>
<path d="M260.833 95.9634C263.855 95.2221 267.084 95.6796 269.685 97.3881C271.383 98.5036 272.797 100.091 272.541 102.233C271.945 107.229 269.704 115.461 269.704 115.461L253.604 105.636C253.604 105.636 252.891 101.428 254.944 98.7881C256.013 97.4121 258.599 96.5112 260.833 95.9634Z" fill="#263238"/>
<path d="M261.693 120.937L261.691 120.943C261.701 120.966 261.706 120.981 261.716 121.003L262.499 123.88C262.566 124.468 262.578 125.053 262.537 125.623C262.503 126.104 262.431 126.571 262.335 127.02C261.707 127.892 261.421 129.866 263.672 129.859C266.514 129.854 271.699 125.663 271.877 124.409C270.534 120.534 269.4 116 269.585 112.288L266.367 115.819L261.693 120.937Z" fill="#FF8B7B"/>
<g opacity="0.2">
<path d="M261.715 121.003L262.498 123.88C264.27 123.055 266.118 121.292 266.53 119.396C266.819 118.028 266.194 116.755 265.642 116.689L261.715 121.003Z" fill="black"/>
</g>
<path d="M254.476 115.019C254.648 115.644 254.841 116.261 255.047 116.868C256.88 122.231 263.517 122.669 267.613 118.678C267.619 118.67 267.618 118.663 267.625 118.663C267.988 118.308 268.334 117.92 268.653 117.493C271.249 114.025 270.571 111.379 270.131 105.364C269.692 99.355 263.234 95.6463 257.801 98.7647C252.786 101.642 252.738 108.765 254.476 115.019Z" fill="#FF8B7B"/>
<path d="M258.43 116.01C258.331 116.01 258.271 116.005 258.268 116.005C258.169 115.995 258.098 115.907 258.106 115.809C258.116 115.71 258.203 115.64 258.302 115.647C258.399 115.657 260.762 115.852 261.117 113.171C261.129 113.073 261.222 113.001 261.318 113.016C261.417 113.029 261.486 113.12 261.473 113.218C261.13 115.82 259.035 116.01 258.43 116.01Z" fill="#263238"/>
<path d="M270.201 105.925C270.201 105.925 268.386 106.022 268.317 107.577C268.249 109.131 268.411 109.335 268.411 109.335L266.27 109.793C266.27 109.793 266.836 103.864 265.275 103.946C263.713 104.029 265.393 101.356 264.452 100.975C262.233 100.078 256.197 100.052 253.887 103.698C253.887 103.698 254.485 100.109 257.34 98.1621C260.194 96.2149 265.956 95.78 268.299 98.5991C270.644 101.419 270.201 105.925 270.201 105.925Z" fill="#263238"/>
<path d="M273.231 108.996C273.002 110.605 272.051 111.958 270.969 112.742C269.343 113.922 267.835 112.636 267.704 110.737C267.586 109.027 268.291 106.354 270.203 105.926C272.088 105.504 273.494 107.157 273.231 108.996Z" fill="#FF8B7B"/>
<path d="M261.242 109.451C261.306 109.921 261.109 110.336 260.801 110.378C260.494 110.419 260.193 110.072 260.129 109.602C260.066 109.132 260.263 108.716 260.57 108.675C260.877 108.633 261.179 108.98 261.242 109.451Z" fill="#263238"/>
<path d="M256.082 110.087C256.146 110.557 255.949 110.972 255.641 111.014C255.334 111.056 255.032 110.708 254.969 110.238C254.905 109.768 255.102 109.353 255.41 109.311C255.718 109.269 256.019 109.617 256.082 110.087Z" fill="#263238"/>
<path d="M254.081 108.292C254.163 108.281 254.238 108.226 254.27 108.143C254.418 107.772 254.636 107.523 254.919 107.404C255.386 107.21 255.898 107.418 255.904 107.421C256.022 107.472 256.166 107.417 256.217 107.294C256.269 107.173 256.212 107.032 256.091 106.98C256.063 106.968 255.392 106.689 254.736 106.963C254.329 107.133 254.022 107.471 253.826 107.966C253.776 108.089 253.836 108.228 253.96 108.277C254 108.293 254.041 108.297 254.081 108.292Z" fill="#263238"/>
<path d="M262.375 107.336C262.41 107.331 262.445 107.318 262.476 107.297C262.585 107.224 262.615 107.075 262.541 106.967C262.524 106.941 262.116 106.34 261.417 106.21C260.983 106.13 260.542 106.244 260.106 106.552C259.997 106.628 259.972 106.777 260.048 106.885C260.125 106.994 260.274 107.019 260.381 106.943C260.707 106.713 261.024 106.624 261.325 106.679C261.825 106.77 262.14 107.228 262.143 107.232C262.197 107.311 262.288 107.348 262.375 107.336Z" fill="#263238"/>
<path d="M258.063 109.191C258.063 109.191 256.71 112.384 256.6 113.195C256.524 113.749 258.286 113.735 258.286 113.735L258.063 109.191Z" fill="#FF5652"/>
<path d="M262.181 123.31C262.183 123.304 262.184 123.301 262.184 123.299C262.183 123.298 262.18 123.302 262.176 123.31H262.181Z" fill="black"/>
<path d="M288.883 127.276C292.23 131.736 295.427 136.312 298.567 140.92C300.147 143.216 301.683 145.544 303.241 147.845L305.536 151.307L306.671 152.994L307.236 153.811L307.503 154.195C307.592 154.329 307.625 154.392 307.687 154.495L307.847 154.773L307.963 154.997C308.045 155.155 308.111 155.292 308.166 155.414L308.331 155.785C308.722 156.712 308.965 157.454 309.208 158.205C309.445 158.948 309.656 159.666 309.857 160.377C310.259 161.798 310.622 163.19 310.951 164.586C311.616 167.37 312.235 170.129 312.785 172.902C313.904 178.442 314.885 183.971 315.644 189.579C315.878 191.311 314.664 192.906 312.931 193.141C311.447 193.342 310.064 192.479 309.551 191.139L309.544 191.12C307.545 185.905 305.665 180.636 303.786 175.416C302.832 172.81 301.912 170.2 300.947 167.643C300.458 166.369 299.984 165.096 299.494 163.871C299.249 163.26 299.001 162.659 298.752 162.093C298.507 161.536 298.243 160.976 298.042 160.638C298.015 160.588 297.997 160.566 297.978 160.537C297.956 160.502 297.942 160.485 297.938 160.489L297.928 160.484L297.952 160.539L297.996 160.617C298.031 160.676 298.07 160.734 298.111 160.789C298.187 160.888 298.096 160.775 298.079 160.756L297.983 160.639L297.789 160.405L297.407 159.941L296.053 158.259L293.423 154.945C291.709 152.72 289.988 150.512 288.314 148.269C284.948 143.796 281.657 139.281 278.528 134.64C276.566 131.73 277.334 127.779 280.244 125.817C283.061 123.918 286.851 124.577 288.872 127.259L288.883 127.276Z" fill="#263238"/>
<path d="M310.25 192.161C310.25 192.161 308.32 198.513 308.788 199.84C309.255 201.167 310.747 198.428 310.747 198.428L310.25 192.161Z" fill="#FF8B7B"/>
<path d="M315.843 190.519L318.456 196.45C319.09 198.158 313.741 201.416 311.365 200.172C309.49 199.19 310.11 191.883 310.11 191.883C311.787 190.533 313.694 190.064 315.843 190.519Z" fill="#FF8B7B"/>
<path d="M318.456 196.45C319.13 198.357 319.349 202.221 316.272 203.001C314.893 203.351 314.208 203.302 314.208 203.302C314.208 203.302 314.374 205.005 313.47 205.296C312.565 205.587 310.746 199.367 310.746 199.367L318.456 196.45Z" fill="#FF8B7B"/>
<path d="M256.578 138.684C253.514 140.548 250.415 142.285 247.259 143.951C246.229 144.495 245.191 145.031 244.146 145.554C243.235 146.02 242.324 146.478 241.407 146.93C238.801 148.201 236.182 149.437 233.457 150.616C232.087 151.195 230.711 151.766 229.157 152.338C228.783 152.479 228.338 152.621 227.894 152.769L227.138 153.002L226.609 153.129L226.348 153.193L226.206 153.221L225.882 153.277C225.663 153.313 225.416 153.341 225.225 153.355L224.78 153.369C224.448 153.369 224.286 153.355 224.053 153.334C223.82 153.32 223.679 153.298 223.502 153.277C223.319 153.249 223.171 153.228 223.029 153.2C222.443 153.094 221.984 152.974 221.54 152.847C219.817 152.352 218.419 151.809 217 151.251C215.595 150.7 214.24 150.1 212.905 149.493C210.23 148.286 207.624 147.029 205.048 145.709C199.894 143.083 194.853 140.329 189.918 137.293L191.987 132.634C197.486 134.187 202.937 135.896 208.352 137.555C211.063 138.374 213.76 139.214 216.428 139.99L220.396 141.092C221.624 141.416 222.888 141.72 223.919 141.882L223.968 141.861C224.194 141.755 224.42 141.657 224.696 141.515C225.776 140.993 226.983 140.343 228.176 139.687C230.584 138.381 233.033 137.004 235.483 135.634C240.39 132.888 245.36 130.128 250.387 127.586L256.578 138.684Z" fill="#263238"/>
<path opacity="0.2" d="M247.937 135.835L247.304 143.76C247.29 143.824 247.276 143.887 247.262 143.951C246.231 144.495 245.193 145.031 244.148 145.554L247.937 135.835Z" fill="black"/>
<path d="M189.787 137.332C191.823 137.695 194.556 136.564 193.1 132.902C193.1 132.902 192.343 130.85 189.924 126.214C188.937 124.323 184.826 123.531 184.826 123.531C184.826 123.531 182.688 121.71 182.395 122.703C182.102 123.697 185.195 126.119 185.587 126.826C186.809 129.028 188.062 131.243 188.011 131.638C187.961 132.032 186.494 128.874 185.197 128.602C183.901 128.33 186.461 131.967 186.717 133.467C186.971 134.967 188.839 137.15 189.787 137.332Z" fill="#FF8B7B"/>
<path opacity="0.2" d="M185.252 123.702C186.7 124.65 187.828 125.935 188.572 127.499C188.631 127.624 188.446 127.737 188.386 127.611C187.66 126.084 186.563 124.819 185.149 123.892C185.033 123.817 185.135 123.625 185.252 123.702Z" fill="black"/>
<path opacity="0.2" d="M188.608 126.486C188.195 125.711 187.636 125.067 186.93 124.548C186.818 124.465 186.97 124.31 187.08 124.392C187.8 124.921 188.373 125.586 188.794 126.374C188.86 126.496 188.674 126.609 188.608 126.486Z" fill="black"/>
</g>
</g>
<defs>
<clipPath id="clip0_1133_10824">
<rect x="0.5" width="379" height="379" rx="20" fill="white"/>
</clipPath>
<clipPath id="clip1_1133_10824">
<rect width="353" height="353" fill="white" transform="translate(13.5 15)"/>
</clipPath>
</defs>
</svg>
