<svg width="179" height="179" viewBox="0 0 179 179" fill="none" xmlns="http://www.w3.org/2000/svg">
<path d="M179 136.898H0V136.988H179V136.898Z" fill="#EBEBEB"/>
<path d="M161.065 142.661H149.207V142.75H161.065V142.661Z" fill="#EBEBEB"/>
<path d="M118.577 143.632H115.465V143.722H118.577V143.632Z" fill="#EBEBEB"/>
<path d="M148.847 139.336H141.977V139.426H148.847V139.336Z" fill="#EBEBEB"/>
<path d="M34.2443 139.938H18.7812V140.027H34.2443V139.938Z" fill="#EBEBEB"/>
<path d="M39.6969 139.938H37.4297V140.027H39.6969V139.938Z" fill="#EBEBEB"/>
<path d="M80.6024 141.45H47.0664V141.539H80.6024V141.45Z" fill="#EBEBEB"/>
<path d="M74.865 88.1078H69.4531L70.7695 77.5747H76.1814L74.865 88.1078Z" fill="#F0F0F0"/>
<path d="M76.0642 88.1078H70.6523L71.9691 77.5747H77.3806L76.0642 88.1078Z" fill="#F5F5F5"/>
<path d="M76.7205 82.8412H71.3086L71.967 77.5747H77.3785L76.7205 82.8412Z" fill="#F0F0F0"/>
<path d="M56.8362 81.5803H95.1171C95.4365 81.5803 95.6835 81.3007 95.6438 80.9839L92.6938 57.3824C92.6606 57.1168 92.435 56.9174 92.1672 56.9174H53.8863C53.567 56.9174 53.3199 57.197 53.3597 57.5138L56.3096 81.1149C56.3429 81.3813 56.5684 81.5803 56.8362 81.5803Z" fill="#F0F0F0"/>
<path d="M57.4065 81.5803H95.6874C96.0067 81.5803 96.2537 81.3007 96.214 80.9839L93.2641 57.3824C93.2308 57.1168 93.0053 56.9174 92.7375 56.9174H54.4565C54.1372 56.9174 53.8905 57.197 53.9299 57.5138L56.8798 81.1149C56.9128 81.3813 57.1387 81.5803 57.4065 81.5803Z" fill="#F5F5F5"/>
<path d="M94.9756 80.2758L92.2143 58.185C92.205 58.1109 92.142 58.0551 92.0672 58.0551H55.3085C55.2193 58.0551 55.1502 58.1335 55.1613 58.2219L57.9229 80.3127C57.9323 80.3871 57.9953 80.4426 58.0701 80.4426H94.8284C94.9176 80.443 94.9867 80.3646 94.9756 80.2758Z" fill="#E6E6E6"/>
<path d="M91.0565 80.4433L81.3396 58.0558H72.8203L82.5371 80.4433H91.0565Z" fill="#EBEBEB"/>
<path d="M80.8964 80.4433L71.1796 58.0558H68.1094L77.8262 80.4433H80.8964Z" fill="#EBEBEB"/>
<path d="M73.0497 87.1204H80.1087C80.5935 87.1204 80.9866 87.5135 80.9866 87.9982V88.1074H72.1719V87.9982C72.1722 87.5135 72.565 87.1204 73.0497 87.1204Z" fill="#F5F5F5"/>
<path d="M68.0923 87.1204H72.3163C72.8011 87.1204 73.1942 87.5135 73.1942 87.9982V88.1074H67.2148V87.9982C67.2145 87.5135 67.6072 87.1204 68.0923 87.1204Z" fill="#F0F0F0"/>
<path d="M90.7278 88.1081H63.475L62.7383 85.9207H87.1822L90.7278 88.1081Z" fill="#F5F5F5"/>
<path d="M66.4752 88.1081H61.9726L61.3633 85.9207H65.8658L66.4752 88.1081Z" fill="#F0F0F0"/>
<path d="M97.6227 86.278H101.72C102.731 86.278 103.55 87.0971 103.55 88.1078H95.793C95.793 87.0971 96.6121 86.278 97.6227 86.278Z" fill="#F0F0F0"/>
<path d="M70.91 29.942H30.8477V50.0455H70.91V29.942Z" fill="#E6E6E6"/>
<path d="M72.8935 29.942H31.3555V50.0455H72.8935V29.942Z" fill="#F0F0F0"/>
<path d="M71.3086 48.4611V31.5263L32.9392 31.5263V48.4611L71.3086 48.4611Z" fill="white"/>
<path d="M34.457 39.9936C34.457 39.6356 34.7474 39.3453 35.1054 39.3453H69.1419C69.4999 39.3453 69.7898 39.6356 69.7898 39.9936C69.7898 40.3516 69.4995 40.6416 69.1419 40.6416H35.1054C34.7474 40.642 34.457 40.3516 34.457 39.9936Z" fill="#F5F5F5"/>
<path d="M33.5499 89.5H117.812C120.175 89.5 122.108 87.5668 122.108 85.204V32.419C122.108 30.0562 120.175 28.123 117.812 28.123H33.5499C31.1871 28.123 29.2539 30.0562 29.2539 32.419V85.204C29.2539 87.5668 31.1871 89.5 33.5499 89.5Z" fill="#263238"/>
<path d="M53.6194 145.649L73.9788 125.289L74.4783 124.791V64.4496C74.4783 64.0047 74.8423 63.6409 75.287 63.6409H76.0767C76.5217 63.6409 76.8854 64.005 76.8854 64.4496V124.792L77.3831 125.289L97.7425 145.649C98.0146 145.917 98.0146 146.358 97.7425 146.63L97.0194 147.353C96.7509 147.621 96.3105 147.621 96.042 147.353L76.8854 128.196V146.745C76.8854 147.19 76.5214 147.554 76.0767 147.554H75.287C74.842 147.554 74.4783 147.19 74.4783 146.745V128.198L55.3231 147.353C55.0546 147.621 54.6143 147.621 54.3422 147.353L53.619 146.63C53.3509 146.358 53.3509 145.917 53.6194 145.649Z" fill="#263238"/>
<path d="M111.548 26.8697H108.832V27.2277H111.548V26.8697Z" fill="#407BFF"/>
<path d="M106.324 26.8697H100.656V27.2277H106.324V26.8697Z" fill="#407BFF"/>
<path d="M34.4249 89.5H118.687C121.05 89.5 122.983 87.5668 122.983 85.204V32.419C122.983 30.0562 121.05 28.123 118.687 28.123H34.4249C32.0621 28.123 30.1289 30.0562 30.1289 32.419V85.204C30.1289 87.5668 32.0621 89.5 34.4249 89.5Z" fill="#407BFF"/>
<path d="M118.689 86.994C119.676 86.994 120.479 86.191 120.479 85.204V32.4187C120.479 31.4317 119.676 30.6287 118.689 30.6287H34.4267C33.4397 30.6287 32.6367 31.4317 32.6367 32.4187V85.204C32.6367 86.191 33.4397 86.994 34.4267 86.994H118.689Z" fill="#FAFAFA"/>
<path d="M73.3252 125.598H78.0404C78.664 125.598 79.1742 125.088 79.1742 124.464V121.242C79.1742 120.619 78.664 120.109 78.0404 120.109H73.3252C72.7016 120.109 72.1914 120.619 72.1914 121.242V124.464C72.1914 125.088 72.7016 125.598 73.3252 125.598Z" fill="#407BFF"/>
<path opacity="0.1" d="M65.3283 77.7533C74.2071 77.7533 81.4305 70.53 81.4305 61.6512C81.4305 52.7724 74.2071 45.5494 65.3283 45.5494C56.4496 45.5494 49.2266 52.7728 49.2266 61.6512C49.2266 70.5296 56.4496 77.7533 65.3283 77.7533ZM65.3283 45.8634C74.0338 45.8634 81.1161 52.9457 81.1161 61.6512C81.1161 70.3567 74.0338 77.439 65.3283 77.439C56.6228 77.439 49.5405 70.3567 49.5405 61.6512C49.5405 52.9457 56.6228 45.8634 65.3283 45.8634Z" fill="black"/>
<path d="M46.1109 37.5256H60.2899C61.342 37.5256 62.1944 38.378 62.1944 39.4301V65.6357C62.1944 66.6879 61.342 67.5403 60.2899 67.5403H42.1428C41.0907 67.5403 40.2383 66.6879 40.2383 65.6357V43.3982L46.1109 37.5256Z" fill="#407BFF"/>
<path d="M46.941 64.9179H58.7385C59.1961 64.9179 59.5702 64.5435 59.5702 64.0863C59.5702 63.6288 59.1957 63.2547 58.7385 63.2547H46.941C46.4835 63.2547 46.1094 63.6291 46.1094 64.0863C46.1094 64.5438 46.4835 64.9179 46.941 64.9179Z" fill="white"/>
<path d="M52.4996 41.8116H58.7395C59.1971 41.8116 59.5712 41.4371 59.5712 40.9799C59.5712 40.5224 59.1967 40.1483 58.7395 40.1483H52.4996C52.0421 40.1483 51.668 40.5228 51.668 40.9799C51.6676 41.4374 52.0421 41.8116 52.4996 41.8116Z" fill="white"/>
<path d="M48.4293 45.1123H58.7397C59.1972 45.1123 59.5713 44.7382 59.5713 44.2807C59.5713 43.8231 59.1969 43.449 58.7397 43.449H48.4293C47.9718 43.449 47.5977 43.8235 47.5977 44.2807C47.5977 44.7382 47.9721 45.1123 48.4293 45.1123Z" fill="white"/>
<path d="M43.691 48.4134H58.7388C59.1963 48.4134 59.5705 48.039 59.5705 47.5818C59.5705 47.1243 59.196 46.7502 58.7388 46.7502H43.691C43.2335 46.7502 42.8594 47.1246 42.8594 47.5818C42.8594 48.039 43.2338 48.4134 43.691 48.4134Z" fill="white"/>
<path d="M43.691 51.7142H52.4391C52.8966 51.7142 53.2707 51.3401 53.2707 50.8826C53.2707 50.425 52.8963 50.0509 52.4391 50.0509H43.691C43.2335 50.0509 42.8594 50.4254 42.8594 50.8826C42.8594 51.3401 43.2338 51.7142 43.691 51.7142Z" fill="white"/>
<path d="M56.4527 51.7142H58.7411C59.1986 51.7142 59.5727 51.3401 59.5727 50.8826C59.5727 50.425 59.1982 50.0509 58.7411 50.0509H56.4527C55.9952 50.0509 55.6211 50.4254 55.6211 50.8826C55.6211 51.3401 55.9952 51.7142 56.4527 51.7142Z" fill="white"/>
<path d="M43.691 55.0153H58.7388C59.1963 55.0153 59.5705 54.6408 59.5705 54.1837C59.5705 53.7262 59.196 53.3521 58.7388 53.3521H43.691C43.2335 53.3521 42.8594 53.7265 42.8594 54.1837C42.8594 54.6408 43.2338 55.0153 43.691 55.0153Z" fill="white"/>
<path d="M49.4996 58.3161H58.741C59.1985 58.3161 59.5726 57.9416 59.5726 57.4844C59.5726 57.0269 59.1982 56.6528 58.741 56.6528H49.4996C49.0421 56.6528 48.668 57.0273 48.668 57.4844C48.6676 57.942 49.0421 58.3161 49.4996 58.3161Z" fill="white"/>
<path d="M43.691 58.3161H46.1573C46.6148 58.3161 46.9889 57.9416 46.9889 57.4844C46.9889 57.0269 46.6144 56.6528 46.1573 56.6528H43.691C43.2335 56.6528 42.8594 57.0273 42.8594 57.4844C42.8594 57.942 43.2338 58.3161 43.691 58.3161Z" fill="white"/>
<path d="M43.691 61.6172H58.7388C59.1963 61.6172 59.5705 61.2431 59.5705 60.7856C59.5705 60.328 59.196 59.9539 58.7388 59.9539H43.691C43.2335 59.9539 42.8594 60.3284 42.8594 60.7856C42.8594 61.2427 43.2338 61.6172 43.691 61.6172Z" fill="white"/>
<path opacity="0.2" d="M46.1109 37.5256V41.4936C46.1109 42.5458 45.2574 43.3982 44.2053 43.3982H40.2383L46.1109 37.5256Z" fill="black"/>
<path d="M93.677 39.9279V34.2582C81.6779 34.2582 71.9453 43.9908 71.9453 55.9899C71.9453 64.0324 76.319 71.0588 82.8149 74.8107L85.6499 69.8989C80.8445 67.1323 77.6153 61.9398 77.6153 55.9899C77.6153 47.1211 84.8086 39.9279 93.677 39.9279Z" fill="#263238"/>
<path opacity="0.2" d="M115.407 55.9894C115.407 50.2288 113.111 44.6952 109.04 40.6248C104.97 36.5543 99.4367 34.2578 93.6758 34.2578V39.9274C102.544 39.9274 109.737 47.1207 109.737 55.9891H115.407V55.9894Z" fill="black"/>
<path d="M115.41 55.9894H109.74C109.74 64.8657 102.547 72.0511 93.6785 72.0511C90.7529 72.0511 88.0088 71.2703 85.6514 69.8985L82.8164 74.8102C93.1404 80.7681 106.534 77.1752 112.5 66.8512C114.402 63.5543 115.41 59.8025 115.41 55.9894Z" fill="#407BFF"/>
<path d="M63.0977 71.5896L69.968 62.7152L76.8384 71.5893H73.6053V83.0814H66.3308V71.5896H63.0977Z" fill="#407BFF"/>
<path d="M121.004 144.537L118.289 143.597L119.743 137.058L122.459 137.998L121.004 144.537Z" fill="#FF8B7B"/>
<path opacity="0.2" d="M119.742 137.06L118.992 140.43L121.709 141.371L122.459 138L119.742 137.06Z" fill="black"/>
<path d="M147.112 146.079H144.239L142 139.425H144.874L147.112 146.079Z" fill="#FF8B7B"/>
<path opacity="0.2" d="M144.875 139.426H142L143.155 142.856H146.03L144.875 139.426Z" fill="black"/>
<path d="M143.857 145.746H147.361C147.478 145.746 147.58 145.828 147.605 145.943L148.173 148.497C148.232 148.762 148.023 149.012 147.752 149.008C146.625 148.989 145.802 148.922 144.382 148.922C143.509 148.922 140.875 149.013 139.669 149.013C138.489 149.013 138.305 147.821 138.799 147.713C141.013 147.228 142.682 146.56 143.39 145.923C143.519 145.808 143.685 145.746 143.857 145.746Z" fill="#263238"/>
<path d="M118.418 143.289L121.384 144.316C121.495 144.354 121.564 144.464 121.551 144.581L121.252 147.181C121.221 147.45 120.949 147.621 120.694 147.528C119.63 147.14 118.106 146.542 116.762 146.077C115.19 145.532 113.802 145.148 111.959 144.51C110.844 144.124 110.925 142.89 111.427 142.949C113.712 143.22 115.463 143.771 117.691 143.274C117.933 143.22 118.184 143.208 118.418 143.289Z" fill="#263238"/>
<path d="M84.9266 49.7086L114.256 75.8147L113.752 76.375L84.6875 49.9746L84.9266 49.7086Z" fill="#263238"/>
<path d="M134.03 59.694C133.821 60.3173 133.621 60.8564 133.391 61.4231C133.167 61.9823 132.933 62.5362 132.689 63.0868C132.2 64.1873 131.659 65.2698 131.059 66.3338C130.457 67.3971 129.801 68.4457 129.034 69.4563C128.271 70.4684 127.404 71.4536 126.301 72.3282L125.871 72.6479C125.722 72.7524 125.557 72.853 125.401 72.9536C125.082 73.1441 124.757 73.3216 124.43 73.4634C123.774 73.753 123.112 73.9685 122.46 74.1167C121.153 74.425 119.873 74.5037 118.629 74.4969C117.382 74.4758 116.167 74.3534 114.973 74.1529C114.377 74.0559 113.787 73.9249 113.202 73.7874C112.611 73.6478 112.049 73.4981 111.441 73.298L111.921 71.1944C112.44 71.2384 113.016 71.2807 113.564 71.3097C114.119 71.3394 114.676 71.3444 115.227 71.3512C116.33 71.3537 117.423 71.3165 118.48 71.1919C119.537 71.0813 120.559 70.8722 121.477 70.5697C121.938 70.4197 122.361 70.2274 122.741 70.0141C122.937 69.9131 123.109 69.795 123.277 69.6779C123.357 69.6145 123.436 69.5605 123.518 69.4932L123.767 69.2784C124.429 68.6658 125.063 67.8768 125.644 67.019C126.223 66.157 126.761 65.2283 127.262 64.2682C127.763 63.3059 128.232 62.3142 128.676 61.3071C128.9 60.8045 129.116 60.2965 129.321 59.786C129.521 59.2827 129.737 58.7464 129.909 58.282L134.03 59.694Z" fill="#FF8B7B"/>
<path d="M135.196 58.281C135.812 60.9584 130.863 68.4818 130.863 68.4818L124.66 63.9456C124.66 63.9456 126.492 60.3821 128.85 57.7221C131.271 54.9909 134.52 55.3425 135.196 58.281Z" fill="#263238"/>
<path d="M112.276 71.1862L109.211 70.4927L109.657 74.1361C109.657 74.1361 111.586 74.7078 112.705 72.94L112.276 71.1862Z" fill="#FF8B7B"/>
<path d="M107.207 70.4053L108.202 73.1591L109.655 74.1357L109.209 70.4923L107.207 70.4053Z" fill="#FF8B7B"/>
<path d="M148.055 57.8814C144.314 68.5928 144.246 80.1956 143.827 82.519C141.593 82.2218 133.18 81.087 128.594 80.4676C127.563 64.0211 132.081 55.8731 132.081 55.8731C132.081 55.8731 133.077 55.7406 134.423 55.6833C134.845 55.6654 135.3 55.6547 135.772 55.6582C136.034 55.6582 136.299 55.6658 136.567 55.6761C138.3 55.7513 141.11 56.1953 143.043 56.5497C143.448 56.6249 143.86 56.7108 144.257 56.8003C144.626 56.8862 144.987 56.9757 145.327 57.0652C146.87 57.4697 148.055 57.8814 148.055 57.8814Z" fill="#263238"/>
<path d="M145.327 57.0652L144.124 57.9745C142.595 59.1308 140.838 60.2013 138.314 60.2013C138.028 60.2013 137.734 60.1869 137.441 60.1583C135.35 59.9507 134.552 58.9339 134.247 58.1141C133.936 57.2728 134.075 56.4208 134.423 55.6833C134.845 55.6654 135.3 55.6547 135.772 55.6582C136.034 55.6582 136.299 55.6658 136.567 55.6761C138.3 55.7513 141.11 56.1953 143.043 56.5497C143.448 56.6249 143.86 56.7108 144.257 56.8003C144.626 56.8862 144.987 56.9757 145.327 57.0652Z" fill="#407BFF"/>
<path d="M143.381 49.1713C142.692 51.1997 141.77 54.9619 143.04 56.5486C141.756 57.5213 140.101 58.6225 137.615 58.3758C135.129 58.1292 135.791 56.4859 136.565 55.6758C138.963 55.4341 139.136 53.7025 138.949 52.0288L143.381 49.1713Z" fill="#FF8B7B"/>
<path opacity="0.2" d="M141.572 50.3376L138.949 52.0278C138.995 52.4241 139.018 52.8225 138.994 53.2042C139.899 53.1956 141.249 52.3858 141.469 51.4689C141.578 51.0118 141.619 50.5639 141.572 50.3376Z" fill="black"/>
<path d="M138.109 41.0293C135.882 40.8481 135.111 46.2078 136.5 47.2359C137.888 48.2641 142.277 41.3687 138.109 41.0293Z" fill="#263238"/>
<path d="M144.053 46.0696C143.5 48.8673 143.318 50.5328 141.698 51.7886C139.261 53.6778 135.953 51.9164 135.659 49.0098C135.395 46.3936 136.345 42.258 139.257 41.5076C142.127 40.7683 144.607 43.2718 144.053 46.0696Z" fill="#FF8B7B"/>
<path d="M143.483 48.8076C142.103 49.6664 140.777 42.0256 144.602 42.2061C149.294 42.4269 146.413 46.9846 143.483 48.8076Z" fill="#263238"/>
<path d="M144.677 43.2972C142.629 43.961 133.969 43.0853 132.896 40.9402C133.436 40.9899 134.316 40.9391 134.716 40.7121C134.716 40.7121 132.881 40.2127 132.59 38.5358C135.834 40.193 142.681 38.0361 145.132 39.874C147.158 41.392 146.264 42.7828 144.677 43.2972Z" fill="#263238"/>
<path d="M145.665 42.5841C145.665 42.5841 145.546 41.7542 147.957 42.7062C145.965 42.3456 145.732 42.9453 145.732 42.9453L145.665 42.5841Z" fill="#263238"/>
<path d="M144.908 49.351C144.42 49.9456 143.704 50.2596 143.074 50.3115C142.127 50.3899 141.832 49.4992 142.245 48.6987C142.616 47.9784 143.557 47.0695 144.436 47.3655C145.302 47.6573 145.465 48.6708 144.908 49.351Z" fill="#FF8B7B"/>
<path d="M118.191 139.451L122.79 141.041C122.79 141.041 127.294 123.289 128.706 114.447C129.136 111.756 130.095 108.034 131.254 104.058C132.717 99.0493 134.496 93.646 135.94 89.418C137.462 84.9652 138.606 81.818 138.606 81.818L128.592 80.4691C128.592 80.4691 120.965 103.857 120.105 112.585C119.209 121.66 118.191 139.451 118.191 139.451Z" fill="#407BFF"/>
<path opacity="0.2" d="M131.256 104.058C132.719 99.0489 134.498 93.6456 135.941 89.4177L135.042 87.1025C132.356 89.907 131.094 99.0411 131.256 104.058Z" fill="black"/>
<path d="M133.996 81.1969C133.996 81.1969 133.5 105.818 134.176 114.21C134.915 123.401 141.804 142.192 141.804 142.192H147.068C147.068 142.192 143.556 124.993 142.479 116.068C141.252 105.901 143.824 82.5215 143.824 82.5215L133.996 81.1969Z" fill="#407BFF"/>
<path d="M141.176 142.306H147.373V140.454L140.445 140.334L141.176 142.306Z" fill="#263238"/>
<path d="M117.579 139.358L123.058 141.255L123.671 139.484L117.578 137.271L117.579 139.358Z" fill="#263238"/>
<path d="M139.667 46.2811C139.636 46.511 139.489 46.6807 139.339 46.6603C139.189 46.6399 139.092 46.4376 139.123 46.2078C139.154 45.9779 139.301 45.8082 139.451 45.8286C139.601 45.849 139.698 46.0517 139.667 46.2811Z" fill="#263238"/>
<path d="M137.069 45.9314C137.038 46.1612 136.891 46.3309 136.741 46.3105C136.591 46.2901 136.494 46.0878 136.525 45.858C136.556 45.6282 136.703 45.4585 136.853 45.4789C137.004 45.4989 137.1 45.7015 137.069 45.9314Z" fill="#263238"/>
<path d="M137.882 46.1569C137.882 46.1569 137.181 47.4117 136.52 47.9734C136.875 48.4077 137.589 48.3271 137.589 48.3271L137.882 46.1569Z" fill="#FF5652"/>
<path d="M138.474 49.0725C139.364 49.0725 139.851 48.5204 139.873 48.4947C139.897 48.4664 139.895 48.4234 139.866 48.3987C139.838 48.374 139.795 48.3772 139.77 48.4055C139.764 48.412 139.196 49.0524 138.191 48.9171C138.153 48.9121 138.119 48.9382 138.114 48.9755C138.109 49.0127 138.135 49.0471 138.172 49.0521C138.278 49.066 138.378 49.0725 138.474 49.0725Z" fill="#263238"/>
<path d="M140.581 45.5508C140.603 45.5508 140.626 45.5451 140.648 45.5333C140.713 45.4964 140.736 45.4134 140.699 45.3478C140.329 44.692 139.703 44.6447 139.676 44.6429C139.601 44.6379 139.537 44.6952 139.532 44.77C139.527 44.8449 139.583 44.9093 139.658 44.9147C139.679 44.9161 140.167 44.9583 140.462 45.4817C140.487 45.5258 140.533 45.5508 140.581 45.5508Z" fill="#263238"/>
<path d="M136.073 44.8875C136.117 44.8875 136.161 44.866 136.187 44.8266C136.519 44.3261 137.009 44.3193 137.03 44.3193C137.105 44.3193 137.166 44.2585 137.166 44.1836C137.167 44.1088 137.107 44.0476 137.032 44.0469C137.005 44.0472 136.377 44.0487 135.96 44.6759C135.919 44.7385 135.936 44.823 135.998 44.8645C136.021 44.8803 136.048 44.8875 136.073 44.8875Z" fill="#263238"/>
<path d="M142.906 146.248C143.172 146.248 143.458 146.193 143.658 146.145C143.685 146.138 143.705 146.117 143.709 146.09C143.714 146.063 143.701 146.036 143.678 146.021C143.574 145.956 142.646 145.386 142.329 145.55C142.279 145.575 142.219 145.629 142.212 145.742C142.202 145.894 142.25 146.015 142.353 146.102C142.483 146.211 142.687 146.248 142.906 146.248ZM143.461 146.05C142.973 146.147 142.597 146.13 142.44 145.998C142.371 145.94 142.341 145.859 142.348 145.751C142.351 145.698 142.373 145.68 142.391 145.671C142.556 145.586 143.084 145.832 143.461 146.05Z" fill="#407BFF"/>
<path d="M143.642 146.147C143.654 146.147 143.667 146.143 143.678 146.136C143.7 146.122 143.711 146.098 143.709 146.074C143.706 146.039 143.638 145.209 143.304 144.937C143.217 144.866 143.119 144.836 143.014 144.849C142.852 144.869 142.809 144.969 142.797 145.027C142.737 145.348 143.312 145.977 143.609 146.138C143.619 146.145 143.63 146.147 143.642 146.147ZM143.061 144.982C143.117 144.982 143.169 145.002 143.218 145.042C143.432 145.217 143.523 145.7 143.557 145.943C143.261 145.718 142.895 145.242 142.931 145.053C142.935 145.036 142.942 144.996 143.031 144.985C143.041 144.983 143.051 144.982 143.061 144.982Z" fill="#407BFF"/>
<path d="M118.021 143.572C118.046 143.572 118.07 143.558 118.082 143.535C118.095 143.509 118.09 143.478 118.07 143.457C117.969 143.351 117.069 142.419 116.676 142.489C116.6 142.503 116.543 142.549 116.51 142.623C116.456 142.748 116.461 142.867 116.522 142.978C116.729 143.344 117.544 143.507 118.012 143.571C118.015 143.572 118.018 143.572 118.021 143.572ZM116.726 142.62C116.956 142.62 117.469 143.051 117.829 143.406C117.195 143.298 116.757 143.117 116.641 142.911C116.6 142.839 116.598 142.762 116.635 142.677C116.649 142.644 116.668 142.628 116.699 142.623C116.708 142.621 116.716 142.62 116.726 142.62Z" fill="#407BFF"/>
<path d="M118.021 143.572C118.027 143.572 118.034 143.571 118.04 143.569C118.063 143.562 118.081 143.543 118.087 143.52C118.095 143.488 118.275 142.731 118.028 142.328C117.952 142.205 117.845 142.126 117.709 142.094C117.526 142.051 117.444 142.123 117.407 142.191C117.251 142.481 117.698 143.293 117.974 143.553C117.987 143.566 118.004 143.572 118.021 143.572ZM117.607 142.217C117.626 142.217 117.649 142.22 117.678 142.226C117.778 142.25 117.855 142.306 117.911 142.399C118.074 142.664 118.019 143.134 117.98 143.36C117.715 143.043 117.433 142.429 117.527 142.255C117.533 142.244 117.548 142.217 117.607 142.217Z" fill="#407BFF"/>
<path d="M148.594 59.525C148.873 60.0419 149.107 60.502 149.337 60.9967C149.568 61.4833 149.789 61.9726 150.005 62.4645C150.429 63.4523 150.821 64.4561 151.169 65.4821C151.526 66.5038 151.825 67.5571 152.085 68.6297L152.269 69.4402L152.42 70.2675C152.473 70.5403 152.506 70.8256 152.543 71.1077L152.598 71.5309L152.612 71.6365L152.629 71.8126C152.641 71.9476 152.641 72.0665 152.641 72.1885C152.611 73.1336 152.369 73.7716 152.13 74.3684C151.882 74.9573 151.602 75.4728 151.31 75.9672C150.723 76.9481 150.075 77.8245 149.405 78.6694C148.057 80.3538 146.606 81.8674 145.028 83.3098L143.422 81.8689C144.57 80.211 145.709 78.4986 146.734 76.8039C147.245 75.955 147.721 75.0955 148.111 74.2571C148.304 73.8403 148.475 73.4247 148.589 73.0459C148.703 72.6776 148.758 72.3063 148.73 72.215C148.726 72.2082 148.726 72.1978 148.722 72.205C148.718 72.1975 148.725 72.2279 148.716 72.1889L148.698 72.1037L148.624 71.7632C148.575 71.5363 148.532 71.3107 148.466 71.0809L148.286 70.3953L148.083 69.7062C147.796 68.7882 147.477 67.8693 147.12 66.9535C146.76 66.0399 146.383 65.127 145.982 64.222C145.784 63.7684 145.58 63.3162 145.37 62.8698L144.744 61.5634L148.594 59.525Z" fill="#FF8B7B"/>
<path d="M148.053 57.8818C150.622 58.8577 152.345 65.0629 152.345 65.0629L147.04 70.3602C147.04 70.3602 144.749 65.7682 143.823 62.3403C142.815 58.6064 144.942 56.6997 148.053 57.8818Z" fill="#263238"/>
<path d="M144.055 81.4468L141.285 82.3633L143.787 85.0493C143.787 85.0493 145.971 83.7459 145.41 82.5111L144.055 81.4468Z" fill="#FF8B7B"/>
<path d="M139.941 84.353L142.113 86.4763L143.785 85.0493L141.284 82.3633L139.941 84.353Z" fill="#FF8B7B"/>
</svg>
