<svg width="141" height="157" viewBox="0 0 141 157" fill="none" xmlns="http://www.w3.org/2000/svg">
<rect width="141" height="157" rx="8" fill="#E8EBFC"/>
<path d="M72.1354 70.0591H31.7817C31.2116 70.0591 30.75 69.5973 30.75 69.028V52.2085C30.75 51.6388 31.2121 51.1775 31.7817 51.1775H72.1354C72.705 51.1775 73.1671 51.6392 73.1671 52.2085V69.028C73.1671 69.5973 72.7055 70.0591 72.1354 70.0591Z" fill="#407BFF"/>
<path d="M57.4643 48.1665H46.454C44.7175 48.1665 43.3047 46.7545 43.3047 45.019V42.206C43.3047 40.4705 44.7171 39.0585 46.454 39.0585H57.4643C59.2008 39.0585 60.6136 40.4705 60.6136 42.206V45.019C60.6136 46.7545 59.2012 48.1665 57.4643 48.1665ZM46.454 41.3564C45.9851 41.3564 45.6035 41.7378 45.6035 42.2065V45.0194C45.6035 45.4881 45.9851 45.8695 46.454 45.8695H57.4643C57.9332 45.8695 58.3148 45.4881 58.3148 45.0194V42.2065C58.3148 41.7378 57.9332 41.3564 57.4643 41.3564H46.454Z" fill="#407BFF"/>
<path opacity="0.2" d="M72.1313 51.1779H31.7808C31.2075 51.1779 30.75 51.6397 30.75 52.2081V57.6043L51.7604 61.7346C51.8891 61.7617 52.0225 61.7617 52.1516 61.7346L73.1666 57.6043V52.2081C73.1666 51.6397 72.7041 51.1779 72.1313 51.1779Z" fill="black"/>
<path d="M73.2077 56.4602L52.1541 60.5992C52.0244 60.6245 51.8911 60.6245 51.7615 60.5992L30.7078 56.4602C30.2306 56.3664 29.8867 55.9483 29.8867 55.4626V45.2905C29.8867 44.729 30.3423 44.2737 30.9042 44.2737H73.0118C73.5737 44.2737 74.0293 44.729 74.0293 45.2905V55.4626C74.0288 55.9483 73.6845 56.3664 73.2077 56.4602Z" fill="#407BFF"/>
<path d="M54.1358 62.5231H49.7842C49.2477 62.5231 48.8086 62.0843 48.8086 61.5481V58.7994C48.8086 58.2632 49.2477 57.8244 49.7842 57.8244H54.1358C54.6723 57.8244 55.1114 58.2632 55.1114 58.7994V61.5481C55.1114 62.0843 54.6723 62.5231 54.1358 62.5231Z" fill="#407BFF"/>
<path opacity="0.4" d="M54.1358 62.5231H49.7842C49.2477 62.5231 48.8086 62.0843 48.8086 61.5481V58.7994C48.8086 58.2632 49.2477 57.8244 49.7842 57.8244H54.1358C54.6723 57.8244 55.1114 58.2632 55.1114 58.7994V61.5481C55.1114 62.0843 54.6723 62.5231 54.1358 62.5231Z" fill="black"/>
<path d="M119.444 61.534C119.914 62.5067 120.282 63.4256 120.665 64.3835C121.045 65.332 121.376 66.3009 121.694 67.2781C122.316 69.2361 122.833 71.2491 123.127 73.3719C123.17 73.6327 123.189 73.9091 123.218 74.1777L123.258 74.5828C123.264 74.6546 123.272 74.7075 123.277 74.7952L123.288 75.0613C123.307 75.7605 123.231 76.351 123.128 76.916C122.923 78.0379 122.612 79.0471 122.261 80.0308C121.55 81.9921 120.685 83.8074 119.651 85.5883L117.566 84.7079C118.031 82.838 118.497 80.9296 118.851 79.0897C119.021 78.1708 119.165 77.2543 119.217 76.4186C119.238 76.0053 119.235 75.6071 119.192 75.3205L119.149 75.0634L119.089 74.7349C119.046 74.5156 119.018 74.2999 118.961 74.0768C118.579 72.3091 118.022 70.5118 117.381 68.7321C117.068 67.839 116.722 66.9533 116.378 66.066C116.036 65.1884 115.651 64.2822 115.301 63.4596L119.444 61.534Z" fill="#7F3E3B"/>
<path d="M117.64 84.1797L116.039 85.7408L119.53 87.3638C119.53 87.3638 120.377 85.8855 119.792 84.5487L117.64 84.1797Z" fill="#7F3E3B"/>
<path d="M114.75 88.0654L117.698 89.2722L119.53 87.3642L116.04 85.7408L114.75 88.0654Z" fill="#7F3E3B"/>
<path opacity="0.2" d="M54.9896 86.3849C71.2049 84.5745 82.8849 69.9696 81.073 53.7601C79.2611 37.5506 64.6443 25.8817 48.429 27.6921C32.2099 29.5029 20.53 44.1078 22.3415 60.3173C24.1542 76.5264 38.771 88.1957 54.9896 86.3849Z" fill="#407BFF"/>
<path opacity="0.1" d="M33.4961 33.7839L78.4228 69.6608C78.6152 69.2557 78.7969 68.8448 78.9721 68.4315C80.0832 65.7895 80.8127 62.9687 81.1065 60.0344L81.1061 60.0311L42.3015 29.0432C39.0667 30.1237 36.0998 31.743 33.4961 33.7839Z" fill="white"/>
<path opacity="0.1" d="M23.1289 49.5025L65.3677 83.23C69.4157 81.1223 72.8819 78.1166 75.5312 74.5024L29.4069 37.6692C26.4646 41.0492 24.2962 45.0912 23.1289 49.5025Z" fill="white"/>
<path d="M124.478 90.1997C124.378 89.2275 124.101 88.6136 123.77 88.1097C123.436 87.6111 123.025 87.2699 122.558 87.0403L119.757 85.6662C117.893 84.7439 116.016 83.8463 114.141 82.9454C112.269 82.0396 110.379 81.1674 108.499 80.2768C106.608 79.4091 104.725 78.5242 102.825 77.6742C99.0349 75.9536 95.2212 74.2806 91.3804 72.6625C89.4594 71.8547 87.5338 71.0567 85.5952 70.2846C84.4189 69.8204 83.8022 68.5258 84.1854 67.3215C89.207 51.5491 82.0941 34.0508 66.7901 26.5009C49.9158 18.176 29.4826 25.0993 21.1532 41.9637C12.8221 58.8305 19.7495 79.2517 36.6234 87.5766C51.9266 95.1265 70.1504 90.1292 79.6258 76.5523C80.3491 75.5156 81.7528 75.2179 82.8368 75.8687L82.8372 75.8691C84.6293 76.9373 86.4342 77.9801 88.2441 79.013C91.8649 81.076 95.5129 83.084 99.1846 85.0445C101.015 86.0352 102.863 86.9906 104.703 87.9637C106.554 88.9134 108.395 89.8819 110.253 90.8169C112.109 91.7567 113.963 92.6994 115.83 93.618L118.624 95.0048C119.091 95.2356 119.612 95.3541 120.211 95.3156C120.813 95.2717 121.468 95.1179 122.301 94.6062C123.762 93.7049 124.665 92.0208 124.478 90.1997ZM39.8052 81.1355C26.4887 74.566 21.0256 58.4524 27.5989 45.1437C34.1711 31.8382 50.2924 26.3734 63.609 32.9429C76.9256 39.5124 82.3887 55.6259 75.817 68.9318C69.2436 82.2402 53.1218 87.7049 39.8052 81.1355Z" fill="#407BFF"/>
<path d="M103.974 48.8576C103.974 49.1007 103.845 49.2976 103.686 49.298C103.528 49.298 103.398 49.1011 103.398 48.8584C103.398 48.6156 103.527 48.4184 103.686 48.4184C103.844 48.4176 103.974 48.6144 103.974 48.8576Z" fill="#263238"/>
<path d="M103.867 49.2975C103.867 49.2975 103.315 50.6999 102.707 51.3765C103.137 51.7775 103.869 51.5934 103.869 51.5934L103.867 49.2975Z" fill="#630F0F"/>
<path d="M104.831 47.5101C104.876 47.5101 104.92 47.4896 104.948 47.4506C104.994 47.3866 104.979 47.2977 104.915 47.2513C104.273 46.79 103.656 47.0213 103.63 47.0315C103.557 47.0602 103.52 47.1427 103.549 47.2161C103.577 47.2895 103.66 47.3251 103.733 47.2977C103.753 47.2899 104.236 47.1148 104.748 47.4826C104.774 47.5015 104.802 47.5101 104.831 47.5101Z" fill="#263238"/>
<path d="M112.273 50.6897C111.84 52.8934 111.409 56.9316 112.952 58.402C112.952 58.402 112.349 60.6377 108.251 60.6377C103.746 60.6377 106.098 58.4025 106.098 58.4025C108.557 57.8157 108.493 55.9922 108.065 54.2802L112.273 50.6897Z" fill="#7F3E3B"/>
<path d="M113.759 57.0189C114.1 57.1288 113.654 59.1557 113.654 59.1557C113.654 59.1557 113.092 60.5704 106.109 60.0767C105.572 60.039 105.778 58.0941 106.289 57.8124C107.927 56.9091 112.641 56.6577 113.759 57.0189Z" fill="#263238"/>
<path d="M127.924 141.741C128.304 141.705 128.852 141.012 129.008 140.758C129.023 140.735 129.022 140.704 129.007 140.681C128.991 140.657 128.962 140.646 128.935 140.651C128.893 140.658 127.9 140.84 127.661 141.222C127.606 141.31 127.592 141.403 127.619 141.498C127.67 141.678 127.776 141.729 127.856 141.74C127.877 141.743 127.9 141.744 127.924 141.741ZM128.791 140.826C128.525 141.197 128.088 141.626 127.875 141.599C127.854 141.596 127.793 141.587 127.756 141.458C127.74 141.403 127.748 141.35 127.782 141.298C127.924 141.07 128.46 140.904 128.791 140.826Z" fill="#407BFF"/>
<path d="M128.748 140.828C128.834 140.819 128.909 140.807 128.967 140.79C128.992 140.782 129.012 140.762 129.017 140.736C129.023 140.711 129.014 140.684 128.994 140.667C128.966 140.643 128.303 140.077 127.853 140.119H127.853C127.736 140.131 127.641 140.181 127.572 140.268C127.465 140.403 127.507 140.509 127.542 140.561C127.701 140.795 128.34 140.866 128.748 140.828ZM128.784 140.681C128.393 140.733 127.774 140.648 127.661 140.481C127.651 140.466 127.626 140.429 127.684 140.356C127.729 140.3 127.788 140.268 127.866 140.261H127.867C128.155 140.234 128.58 140.526 128.784 140.681Z" fill="#407BFF"/>
<path d="M99.7198 152.527C100.08 152.527 100.452 152.481 100.645 152.443C100.674 152.437 100.696 152.413 100.701 152.384C100.706 152.354 100.692 152.325 100.666 152.31C100.622 152.285 99.5697 151.685 99.0666 151.821C98.9641 151.849 98.8877 151.905 98.8406 151.988C98.7565 152.136 98.7909 152.239 98.8344 152.3C98.9591 152.474 99.3333 152.527 99.7198 152.527ZM100.414 152.337C99.8532 152.416 99.0904 152.411 98.9501 152.217C98.9321 152.192 98.9136 152.148 98.9641 152.059C98.9924 152.01 99.0379 151.977 99.104 151.959C99.4121 151.875 100.046 152.148 100.414 152.337Z" fill="#407BFF"/>
<path d="M100.632 152.444C100.647 152.444 100.661 152.439 100.674 152.43C100.694 152.415 100.706 152.391 100.703 152.365C100.7 152.331 100.619 151.519 100.235 151.205C100.118 151.109 99.984 151.068 99.8392 151.082C99.643 151.102 99.5864 151.202 99.5733 151.282C99.5183 151.622 100.239 152.274 100.603 152.437C100.612 152.442 100.622 152.444 100.632 152.444ZM99.8962 151.223C99.9869 151.223 100.069 151.253 100.144 151.316C100.396 151.522 100.503 152.007 100.542 152.244C100.171 152.021 99.6812 151.509 99.7144 151.305C99.7169 151.288 99.7251 151.238 99.8535 151.225C99.8679 151.223 99.8818 151.223 99.8962 151.223Z" fill="#407BFF"/>
<path d="M103.947 152.372H100.933L100.633 145.396H103.647L103.947 152.372Z" fill="#7F3E3B"/>
<path d="M131.645 138.552L129.291 140.433L123.309 136.282L125.662 134.4L131.645 138.552Z" fill="#7F3E3B"/>
<path d="M128.863 140.315L131.268 137.933C131.356 137.846 131.492 137.832 131.595 137.898L133.904 139.381C134.144 139.535 134.173 139.875 133.968 140.072C133.114 140.889 132.657 141.244 131.6 142.292C130.949 142.937 129.362 144.864 128.463 145.754C127.584 146.625 126.566 145.873 126.855 145.428C128.147 143.433 128.588 141.788 128.646 140.791C128.656 140.611 128.735 140.442 128.863 140.315Z" fill="#263238"/>
<path d="M100.952 152.023H104.244C104.367 152.023 104.473 152.109 104.5 152.229L105.095 154.907C105.157 155.184 104.946 155.448 104.662 155.443C103.474 155.423 101.758 155.353 100.266 155.353C98.5211 155.353 97.0141 155.448 94.9676 155.448C93.7301 155.448 93.3867 154.198 93.9045 154.085C96.2625 153.569 98.188 153.514 100.226 152.258C100.447 152.122 100.692 152.023 100.952 152.023Z" fill="#263238"/>
<path d="M118.89 59.302C121.505 60.5527 122.599 68.9654 122.599 68.9654L116.588 71.3216C116.588 71.3216 115.151 67.9185 114.329 64.2875C113.468 60.4834 116.217 58.0235 118.89 59.302Z" fill="#407BFF"/>
<path opacity="0.3" d="M118.89 59.302C121.505 60.5527 122.599 68.9654 122.599 68.9654L116.588 71.3216C116.588 71.3216 115.151 67.9185 114.329 64.2875C113.468 60.4834 116.217 58.0235 118.89 59.302Z" fill="white"/>
<path opacity="0.2" d="M114.997 61.776C114.784 61.6735 114.571 61.5955 114.357 61.5422C114.132 62.3295 114.099 63.2604 114.333 64.2896C115.153 67.9186 116.589 71.3221 116.589 71.3221L118.571 70.5471C118.206 68.3451 117.086 62.7765 114.997 61.776Z" fill="black"/>
<path d="M101.465 59.2382C101.465 59.2382 98.2565 62.8598 101.286 85.2755C106.144 85.2755 115.044 85.2755 117.408 85.2755C117.519 82.802 115.964 70.7366 118.351 59.0828C118.351 59.0828 115.587 58.5284 112.954 58.4017C110.894 58.3024 107.912 58.2368 106.101 58.4021C103.713 58.6198 101.465 59.2382 101.465 59.2382Z" fill="#407BFF"/>
<path opacity="0.3" d="M101.465 59.2382C101.465 59.2382 98.2565 62.8598 101.286 85.2755C106.144 85.2755 115.044 85.2755 117.408 85.2755C117.519 82.802 115.964 70.7366 118.351 59.0828C118.351 59.0828 115.587 58.5284 112.954 58.4017C110.894 58.3024 107.912 58.2368 106.101 58.4021C103.713 58.6198 101.465 59.2382 101.465 59.2382Z" fill="white"/>
<path opacity="0.2" d="M104.707 64.0435C103.976 61.8538 102.22 61.1526 100.431 62.4525C100.07 64.5766 99.8159 68.0005 100.107 73.4297L103.254 73.401C103.254 73.401 105.794 67.3035 104.707 64.0435Z" fill="black"/>
<path d="M104.127 63.146C103.995 64.2429 103.813 65.2422 103.613 66.2801C103.417 67.3093 103.178 68.3307 102.913 69.3514C102.371 71.3906 101.717 73.4179 100.77 75.4272C100.537 75.9295 100.265 76.4281 99.9789 76.9255C99.8279 77.1744 99.6818 77.4217 99.5127 77.6689C99.4003 77.8481 99.0627 78.3332 98.7463 78.6096C98.0993 79.2276 97.4075 79.5441 96.7765 79.7766C96.1393 80.0042 95.5333 80.1321 94.9445 80.2084C93.7702 80.3634 92.6641 80.3441 91.5829 80.2511C91.0426 80.2043 90.51 80.1346 89.9824 80.0399C89.4494 79.9472 88.9439 79.8492 88.3945 79.702L88.6633 77.4561C90.5638 77.3274 92.5767 77.1207 94.2084 76.6327C94.6101 76.504 94.9839 76.3617 95.2818 76.2013C95.5805 76.0447 95.7914 75.8565 95.8533 75.7478C95.8213 75.7765 96.1208 75.2808 96.2973 74.9146C96.4881 74.5201 96.6706 74.1142 96.8397 73.6881C97.186 72.845 97.4814 71.9487 97.7485 71.0363C98.0246 70.1264 98.2601 69.1906 98.4821 68.2483C98.7073 67.3064 98.9014 66.3514 99.0951 65.396C99.283 64.4492 99.4496 63.4548 99.5981 62.5486L104.127 63.146Z" fill="#7F3E3B"/>
<path d="M105.488 61.4348C106.337 64.187 102.893 72.3902 102.893 72.3902L95.6328 70.5655C95.6328 70.5655 96.2991 66.405 97.8615 63.0221C100.218 57.9185 104.469 58.1318 105.488 61.4348Z" fill="#407BFF"/>
<path opacity="0.3" d="M105.488 61.4348C106.337 64.187 102.893 72.3902 102.893 72.3902L95.6328 70.5655C95.6328 70.5655 96.2991 66.405 97.8615 63.0221C100.218 57.9185 104.469 58.1318 105.488 61.4348Z" fill="white"/>
<path d="M88.7648 77.4667L85.3516 77.3827L86.9932 80.9305C86.9932 80.9305 88.3816 81.115 89.5226 79.241L90.7261 77.8091L89.3421 77.5315C89.1517 77.4934 88.9589 77.4716 88.7648 77.4667Z" fill="#7F3E3B"/>
<path d="M83.1953 78.0424L85.15 80.9834L86.9918 80.9305L85.3502 77.3827L83.1953 78.0424Z" fill="#7F3E3B"/>
<path opacity="0.2" d="M100.633 145.398L100.787 148.994H103.802L103.648 145.398H100.633Z" fill="black"/>
<path opacity="0.2" d="M125.668 134.401L123.312 136.283L126.397 138.422L128.752 136.54L125.668 134.401Z" fill="black"/>
<path d="M112.085 48.3355C111.904 51.3199 111.95 53.0758 110.443 54.6085C108.177 56.9143 104.49 55.5509 103.775 52.573C103.132 49.8925 103.536 45.4627 106.457 44.2727C109.336 43.0999 112.266 45.3511 112.085 48.3355Z" fill="#7F3E3B"/>
<path d="M114.515 45.5533C114.515 45.5533 116.085 46.0228 115.597 47.8143C114.854 50.5351 113.106 53.6691 110.847 53.8684C108.039 54.1157 106.771 51.2166 106.402 48.2207C104.719 47.0689 103.472 45.9892 103.872 44.7898C104.488 42.9445 106.722 41.3543 110.272 41.7656C113.811 42.1753 115.596 44.4716 114.515 45.5533Z" fill="#263238"/>
<path d="M108.108 48.8334C108.061 49.615 107.698 50.3506 107.261 50.8312C106.604 51.5545 105.918 51.1039 105.802 50.2227C105.697 49.4296 105.913 48.0974 106.716 47.6984C107.508 47.306 108.162 47.9395 108.108 48.8334Z" fill="#7F3E3B"/>
<path d="M107.003 85.2755C107.003 85.2755 105.986 105.583 107.967 114.185C111.104 127.809 124.903 138.725 124.903 138.725L129.343 135.176C129.343 135.176 117.99 126.733 116.969 115.393C116.053 105.205 117.407 93.5049 117.407 85.2759C113.651 85.2754 107.003 85.2755 107.003 85.2755Z" fill="#407BFF"/>
<path opacity="0.2" d="M107.003 85.2755C107.003 85.2755 105.986 105.583 107.967 114.185C111.104 127.809 124.903 138.725 124.903 138.725L129.343 135.176C129.343 135.176 117.99 126.733 116.969 115.393C116.053 105.205 117.407 93.5049 117.407 85.2759C113.651 85.2754 107.003 85.2755 107.003 85.2755Z" fill="black"/>
<path opacity="0.2" d="M108.516 91.2919C108.097 90.4996 107.306 92.8583 106.748 95.8845C106.732 100.059 106.822 104.807 107.187 108.83C109.976 103.684 109.383 92.9313 108.516 91.2919Z" fill="black"/>
<path d="M122.895 137.851C122.876 137.866 124.575 139.153 124.575 139.153L129.692 135.006L128.158 133.618L122.895 137.851Z" fill="#2C6BDB"/>
<path opacity="0.4" d="M122.895 137.851C122.876 137.866 124.575 139.153 124.575 139.153L129.692 135.006L128.158 133.618L122.895 137.851Z" fill="#FAFAFA"/>
<path d="M101.284 85.2755C101.284 85.2755 96.7436 104.507 96.4236 113.694C96.065 123.997 99.6629 148.298 99.6629 148.298H104.769C104.769 148.298 105.398 123.808 105.625 114.423C105.873 104.193 111.881 85.2755 111.881 85.2755H101.284Z" fill="#407BFF"/>
<path opacity="0.2" d="M101.284 85.2755C101.284 85.2755 96.7436 104.507 96.4236 113.694C96.065 123.997 99.6629 148.298 99.6629 148.298H104.769C104.769 148.298 105.398 123.808 105.625 114.423C105.873 104.193 111.881 85.2755 111.881 85.2755H101.284Z" fill="black"/>
<path d="M98.677 146.265C98.6536 146.265 98.9651 148.384 98.9651 148.384H105.176L105.344 146.493L98.677 146.265Z" fill="#2C6BDB"/>
<path opacity="0.4" d="M98.677 146.265C98.6536 146.265 98.9651 148.384 98.9651 148.384H105.176L105.344 146.493L98.677 146.265Z" fill="#FAFAFA"/>
</svg>
