<svg width="78" height="78" viewBox="0 0 78 78" fill="none" xmlns="http://www.w3.org/2000/svg">
<circle cx="38.7764" cy="38.7764" r="38.7764" fill="#3A57E8" fill-opacity="0.2"/>
<g clip-path="url(#clip0_1478_34321)">
<g clip-path="url(#clip1_1478_34321)">
<path fill-rule="evenodd" clip-rule="evenodd" d="M48.5195 50.233C47.4977 50.9098 46.2732 51.3038 44.9583 51.3038C41.3933 51.3038 38.5 48.4105 38.5 44.8455C38.5 41.2805 41.3933 38.3871 44.9583 38.3871C48.5233 38.3871 51.4167 41.2805 51.4167 44.8455C51.4167 46.1604 51.0227 47.3849 50.3459 48.4066L54 52.0607L52.1736 53.8871L48.5195 50.233ZM38.633 51.3038H23V25.4705H32.0417C34.231 27.9789 35.1042 29.3455 37.2083 29.3455H51.4167V38.5202C49.775 36.8449 47.4874 35.8038 44.9583 35.8038C39.9686 35.8038 35.9167 39.8558 35.9167 44.8455C35.9167 47.3745 36.9577 49.6621 38.633 51.3038ZM44.9583 40.9705C47.0973 40.9705 48.8333 42.7065 48.8333 44.8455C48.8333 46.9845 47.0973 48.7205 44.9583 48.7205C42.8193 48.7205 41.0833 46.9845 41.0833 44.8455C41.0833 42.7065 42.8193 40.9705 44.9583 40.9705Z" fill="#4318FF"/>
</g>
</g>
<defs>
<clipPath id="clip0_1478_34321">
<rect width="45.4814" height="45.4814" fill="white" transform="translate(15.9648 16.2366)"/>
</clipPath>
<clipPath id="clip1_1478_34321">
<rect width="31" height="31" fill="white" transform="translate(23 24.1787)"/>
</clipPath>
</defs>
</svg>
