<svg width="148" height="121" viewBox="0 0 148 121" fill="none" xmlns="http://www.w3.org/2000/svg">
<path d="M37.8308 34.7013C39.399 24.7464 32.8372 15.3667 23.1746 13.7511C13.512 12.1354 4.40762 18.8958 2.83944 28.8507C1.27126 38.8056 7.83309 48.1853 17.4957 49.8009C27.1583 51.4166 36.2626 44.6562 37.8308 34.7013Z" fill="#407BFF"/>
<path opacity="0.7" d="M37.8308 34.7013C39.399 24.7464 32.8372 15.3667 23.1746 13.7511C13.512 12.1354 4.40762 18.8958 2.83944 28.8507C1.27126 38.8056 7.83309 48.1853 17.4957 49.8009C27.1583 51.4166 36.2626 44.6562 37.8308 34.7013Z" fill="#FAFAFA"/>
<path d="M10.75 31.4695C10.75 29.1722 11.1515 27.5643 11.9545 26.6464C12.7571 25.7285 13.9804 25.2697 15.6234 25.2697C16.4127 25.2697 17.0612 25.3701 17.5677 25.5705C18.0746 25.7713 18.4882 26.032 18.8081 26.3538C19.1283 26.6752 19.3803 27.0133 19.5642 27.3678C19.7481 27.7223 19.8962 28.136 20.0084 28.6087C20.2271 29.5103 20.3366 30.45 20.3366 31.4283C20.3366 33.6213 19.9766 35.2261 19.2564 36.2432C18.5361 37.26 17.2958 37.7686 15.5354 37.7686C14.5481 37.7686 13.7508 37.6063 13.1423 37.2822C12.5342 36.958 12.0353 36.4825 11.6459 35.856C11.363 35.4109 11.1432 34.8023 10.9857 34.0299C10.8286 33.2571 10.75 32.4038 10.75 31.4695ZM13.983 31.4777C13.983 33.0167 14.1152 34.068 14.3789 34.6311C14.6429 35.1945 15.0259 35.4763 15.5274 35.4763C15.8583 35.4763 16.145 35.3568 16.3878 35.1175C16.6307 34.8782 16.8093 34.5004 16.9238 33.984C17.0386 33.4676 17.096 32.6622 17.096 31.5684C17.096 29.9636 16.9638 28.8846 16.6998 28.3325C16.4358 27.7799 16.0396 27.504 15.5116 27.504C14.9726 27.504 14.5832 27.7857 14.343 28.3492C14.1032 28.9122 13.983 29.9551 13.983 31.4777Z" fill="#FAFAFA"/>
<path d="M29.0694 25.2693V37.5619H25.7726V29.5072C25.2389 29.9251 24.723 30.2629 24.224 30.5212C23.7251 30.7796 23.0996 31.0271 22.3477 31.2633V28.5095C23.4573 28.1414 24.3188 27.699 24.9322 27.1822C25.5456 26.6655 26.0256 26.0281 26.3727 25.2693H29.0694Z" fill="#FAFAFA"/>
<path d="M73.0326 35.9804C75.2821 26.1656 69.3829 16.3305 59.8564 14.013C50.3298 11.6954 40.7835 17.7731 38.534 27.5878C36.2845 37.4025 42.1837 47.2377 51.7103 49.5552C61.2368 51.8727 70.7832 45.7951 73.0326 35.9804Z" fill="#407BFF"/>
<path opacity="0.7" d="M73.0326 35.9804C75.2821 26.1656 69.3829 16.3305 59.8564 14.013C50.3298 11.6954 40.7835 17.7731 38.534 27.5878C36.2845 37.4025 42.1837 47.2377 51.7103 49.5552C61.2368 51.8727 70.7832 45.7951 73.0326 35.9804Z" fill="#FAFAFA"/>
<path d="M45.4727 31.4695C45.4727 29.1722 45.8741 27.5643 46.6771 26.6464C47.4797 25.7285 48.7031 25.2697 50.346 25.2697C51.1354 25.2697 51.7839 25.3701 52.2904 25.5705C52.7972 25.7713 53.2108 26.032 53.5307 26.3538C53.851 26.6752 54.1029 27.0133 54.2869 27.3678C54.4708 27.7223 54.6188 28.136 54.731 28.6087C54.9497 29.5103 55.0592 30.45 55.0592 31.4283C55.0592 33.6213 54.6993 35.2261 53.979 36.2432C53.2588 37.26 52.0184 37.7686 50.258 37.7686C49.2707 37.7686 48.4734 37.6063 47.8653 37.2822C47.2573 36.958 46.7583 36.4825 46.3689 35.856C46.086 35.4109 45.8662 34.8023 45.7087 34.0299C45.5512 33.2571 45.4727 32.4038 45.4727 31.4695ZM48.7057 31.4777C48.7057 33.0167 48.8379 34.068 49.1015 34.6311C49.3655 35.1945 49.7485 35.4763 50.2497 35.4763C50.5806 35.4763 50.8672 35.3568 51.1101 35.1175C51.3529 34.8782 51.5316 34.5004 51.646 33.984C51.7609 33.4676 51.8183 32.6622 51.8183 31.5684C51.8183 29.9636 51.6861 28.8846 51.4221 28.3325C51.1581 27.7799 50.7619 27.504 50.2338 27.504C49.6949 27.504 49.3055 27.7857 49.0653 28.3492C48.8254 28.9122 48.7057 29.9551 48.7057 31.4777Z" fill="#FAFAFA"/>
<path d="M65.9433 37.5619H56.1641C56.2762 36.5673 56.6162 35.6315 57.1846 34.7548C57.7526 33.8782 58.8185 32.8435 60.3814 31.6508C61.3362 30.9201 61.9469 30.3648 62.2139 29.9854C62.4806 29.606 62.6139 29.2461 62.6139 28.9052C62.6139 28.5371 62.4817 28.2223 62.2177 27.9612C61.9537 27.7001 61.6213 27.5698 61.2214 27.5698C60.8051 27.5698 60.4652 27.7044 60.2012 27.9737C59.9372 28.243 59.7597 28.7185 59.669 29.3998L56.4039 29.1278C56.5319 28.1826 56.7665 27.4445 57.1083 26.9141C57.4493 26.3838 57.9309 25.9771 58.5526 25.6938C59.1743 25.411 60.0343 25.2693 61.1334 25.2693C62.2804 25.2693 63.1725 25.404 63.8101 25.6732C64.4476 25.9425 64.9492 26.3561 65.3144 26.9141C65.6796 27.4721 65.8624 28.097 65.8624 28.7897C65.8624 29.5263 65.6528 30.2298 65.2343 30.9002C64.8155 31.5707 64.0537 32.3073 62.9497 33.1096C62.2936 33.577 61.8548 33.9038 61.6334 34.0906C61.4121 34.2774 61.1519 34.5221 60.8531 34.8245H65.9429L65.9433 37.5619Z" fill="#FAFAFA"/>
<path d="M90.8793 39.3902C100.655 38.8839 108.182 30.3086 107.691 20.2368C107.199 10.1649 98.8759 2.4104 89.0997 2.91667C79.3236 3.42293 71.7968 11.9982 72.2882 22.0701C72.7796 32.142 81.1031 39.8965 90.8793 39.3902Z" fill="#407BFF"/>
<path opacity="0.7" d="M90.8793 39.3902C100.655 38.8839 108.182 30.3086 107.691 20.2368C107.199 10.1649 98.8759 2.4104 89.0997 2.91667C79.3236 3.42293 71.7968 11.9982 72.2882 22.0701C72.7796 32.142 81.1031 39.8965 90.8793 39.3902Z" fill="#FAFAFA"/>
<path d="M80.947 24.6705C80.0972 22.5467 79.8736 20.9026 80.2762 19.7384C80.6788 18.5746 81.6396 17.6699 83.1591 17.0247C83.8892 16.7146 84.5256 16.5531 85.0683 16.5395C85.6111 16.5258 86.09 16.6048 86.5047 16.7764C86.9198 16.948 87.2778 17.1617 87.5789 17.4169C87.8803 17.6726 88.1699 17.9967 88.4483 18.3897C88.9839 19.1372 89.4329 19.9633 89.7948 20.8676C90.6061 22.8953 90.867 24.5203 90.577 25.7433C90.2873 26.9663 89.3287 27.9231 87.7008 28.6146C86.788 29.0021 85.991 29.1652 85.3086 29.1045C84.6264 29.0434 83.9893 28.7998 83.3974 28.3733C82.971 28.0729 82.5427 27.5962 82.1114 26.9441C81.6808 26.2923 81.2925 25.5343 80.947 24.6705ZM83.939 23.4086C84.5082 24.8316 85.0192 25.7514 85.4717 26.1686C85.9242 26.5857 86.3823 26.6958 86.8461 26.4989C87.1521 26.369 87.3726 26.146 87.509 25.8296C87.6449 25.5133 87.6703 25.0938 87.5853 24.5712C87.5003 24.0487 87.2555 23.2817 86.8507 22.2704C86.2569 20.7867 85.7357 19.8411 85.2874 19.4341C84.8387 19.0271 84.3704 18.9275 83.8824 19.1345C83.3838 19.3462 83.1281 19.7594 83.1145 20.3746C83.1009 20.9898 83.3759 22.0011 83.939 23.4086Z" fill="#FAFAFA"/>
<path d="M93.0506 16.8278L89.9917 17.5115C89.8542 16.476 90.0226 15.5663 90.4966 14.7822C90.9706 13.9985 91.8242 13.3444 93.0574 12.8207C94.473 12.2195 95.6053 12.0568 96.454 12.3323C97.303 12.6078 97.8918 13.1573 98.2212 13.9806C98.4146 14.4635 98.461 14.955 98.3609 15.455C98.2609 15.9554 98.0112 16.4628 97.6112 16.9772C98.0731 16.906 98.4436 16.8943 98.7224 16.9422C99.1737 17.0181 99.5745 17.2002 99.9235 17.4889C100.273 17.7776 100.551 18.1812 100.759 18.6995C101.019 19.3501 101.103 20.0439 101.012 20.7812C100.92 21.5186 100.628 22.1805 100.136 22.7673C99.6432 23.3541 98.8916 23.8623 97.8805 24.2915C96.8936 24.7105 96.0684 24.9215 95.4029 24.9246C94.7377 24.9277 94.1293 24.7775 93.5778 24.4736C93.0264 24.1697 92.5128 23.7117 92.0369 23.0992L94.8835 21.4085C95.2518 21.9832 95.6091 22.3385 95.9547 22.4739C96.3003 22.6097 96.6655 22.5957 97.0503 22.4323C97.4545 22.2607 97.7302 21.9649 97.8771 21.5459C98.0237 21.1268 97.9957 20.6633 97.7925 20.1551C97.5852 19.6368 97.2951 19.2905 96.9223 19.1158C96.5495 18.9411 96.1412 18.9481 95.6971 19.1368C95.4603 19.2372 95.1592 19.4364 94.7936 19.7345L94.0617 17.4504C94.2396 17.4045 94.3751 17.3617 94.4688 17.322C94.8635 17.1543 95.1407 16.885 95.3009 16.5138C95.461 16.1426 95.4701 15.7791 95.3277 15.4235C95.1913 15.083 94.984 14.853 94.7053 14.7336C94.4269 14.6141 94.1145 14.6277 93.7693 14.7744C93.4143 14.9254 93.1699 15.1581 93.0362 15.4737C92.9033 15.7889 92.9078 16.2402 93.0506 16.8278Z" fill="#FAFAFA"/>
<path d="M143.927 35.9841C146.177 26.1694 140.277 16.3342 130.751 14.0167C121.224 11.6992 111.678 17.7768 109.429 27.5916C107.179 37.4063 113.078 47.2414 122.605 49.5589C132.131 51.8765 141.678 45.7988 143.927 35.9841Z" fill="#407BFF"/>
<path opacity="0.7" d="M143.927 35.9841C146.177 26.1694 140.277 16.3342 130.751 14.0167C121.224 11.6992 111.678 17.7768 109.429 27.5916C107.179 37.4063 113.078 47.2414 122.605 49.5589C132.131 51.8765 141.678 45.7988 143.927 35.9841Z" fill="#FAFAFA"/>
<path d="M116.016 31.4695C116.016 29.1721 116.417 27.5643 117.22 26.6463C118.023 25.7284 119.246 25.2697 120.889 25.2697C121.678 25.2697 122.327 25.37 122.833 25.5704C123.34 25.7712 123.754 26.0319 124.074 26.3537C124.394 26.6751 124.646 27.0133 124.83 27.3678C125.014 27.7223 125.162 28.1359 125.274 28.6087C125.493 29.5103 125.602 30.45 125.602 31.4282C125.602 33.6213 125.242 35.226 124.522 36.2432C123.802 37.2599 122.561 37.7685 120.801 37.7685C119.814 37.7685 119.016 37.6062 118.408 37.2821C117.8 36.958 117.301 36.4825 116.912 35.856C116.629 35.4108 116.409 34.8023 116.252 34.0299C116.094 33.2571 116.016 32.4037 116.016 31.4695ZM119.249 31.4776C119.249 33.0166 119.381 34.068 119.644 34.631C119.908 35.1945 120.291 35.4762 120.793 35.4762C121.124 35.4762 121.411 35.3567 121.653 35.1174C121.896 34.8781 122.075 34.5003 122.189 33.9839C122.304 33.4676 122.362 32.6621 122.362 31.5683C122.362 29.9636 122.229 28.8846 121.965 28.3324C121.701 27.7799 121.305 27.504 120.777 27.504C120.238 27.504 119.849 27.7857 119.609 28.3491C119.369 28.9122 119.249 29.955 119.249 31.4776Z" fill="#FAFAFA"/>
<path d="M132.547 35.3031H126.609V32.5411L132.547 25.2693H135.388V32.6976H136.86V35.3027H135.388V37.5615H132.547V35.3031ZM132.547 32.698V28.8943L129.41 32.698H132.547Z" fill="#FAFAFA"/>
<path d="M126.676 51.7254C125.633 51.7254 124.787 50.8542 124.787 49.7798C124.787 48.7051 125.633 47.8342 126.676 47.8342C135.408 47.8342 142.512 40.5153 142.512 31.5193C142.512 22.5233 135.408 15.2044 126.676 15.2044C117.944 15.2044 110.84 22.5233 110.84 31.5193C110.84 42.6602 102.041 51.7239 91.2261 51.7239C80.4124 51.7239 71.6145 42.6605 71.6133 31.5197C71.6133 22.5237 64.5093 15.2044 55.7775 15.2044C47.0456 15.2044 39.9416 22.5233 39.9416 31.5193C39.9416 42.6602 31.1429 51.7239 20.3276 51.7239C9.51318 51.7239 0.714844 42.6594 0.714844 31.5178C0.714844 20.3762 9.51318 11.3117 20.3276 11.3117C21.3705 11.3117 22.2161 12.1829 22.2161 13.2573C22.2161 14.332 21.3705 15.2029 20.3276 15.2029C11.5958 15.2029 4.49177 22.5218 4.49177 31.5178C4.49177 40.5138 11.5958 47.8327 20.3276 47.8327C29.0603 47.8327 36.1647 40.5146 36.1647 31.5193C36.1647 20.3777 44.963 11.3132 55.7775 11.3132C66.5912 11.3132 75.3891 20.3766 75.3903 31.5174V31.5178C75.3903 40.5138 82.4943 47.8327 91.2261 47.8327C99.9588 47.8327 107.063 40.5146 107.063 31.5193C107.063 20.3777 115.861 11.3132 126.676 11.3132C137.49 11.3132 146.289 20.3777 146.289 31.5193C146.289 42.6613 137.49 51.7254 126.676 51.7254Z" fill="#407BFF"/>
<path d="M107.493 45.0777L107.199 44.8326C108.06 43.7388 108.817 42.5535 109.449 41.3099L109.783 41.4905C109.139 42.757 108.369 43.9637 107.493 45.0777Z" fill="#407BFF"/>
<path d="M98.9601 51.5612L98.8203 51.1997C101.198 50.2226 103.358 48.8101 105.24 47.0015L105.498 47.286C103.581 49.1281 101.381 50.5666 98.9601 51.5612Z" fill="#407BFF"/>
<path d="M55.6406 118.081H57.7592L57.9704 111.461H55.8514L55.6406 118.081Z" fill="#FFC3BD"/>
<path opacity="0.2" d="M57.9701 111.463L57.8617 114.875H55.7422L55.8506 111.463H57.9701Z" fill="black"/>
<path d="M40.1055 115.837L42.1762 116.442L44.2553 110.276L42.1846 109.671L40.1055 115.837Z" fill="#FFC3BD"/>
<path opacity="0.2" d="M42.1859 109.673L44.2575 110.278L43.1849 113.456L41.1133 112.851L42.1859 109.673Z" fill="black"/>
<path d="M51.105 24.8915C50.38 26.6168 49.6466 28.4013 48.9458 30.1659C48.2458 31.9341 47.5574 33.7159 46.976 35.4937C46.8234 35.9385 46.6962 36.3778 46.5612 36.8195C46.5485 36.8619 46.5569 36.8327 46.5546 36.8358C46.5549 36.8331 46.5529 36.8261 46.5529 36.8261C46.5526 36.8237 46.5485 36.8183 46.5474 36.8238C46.541 36.8261 46.5376 36.8518 46.5324 36.8829C46.5266 36.9533 46.5272 37.0751 46.5445 37.2222C46.5785 37.5187 46.6734 37.8997 46.8 38.2849C46.9264 38.6732 47.0775 39.0799 47.2497 39.483C47.9421 41.0982 48.8442 42.7387 49.7435 44.2921L48.6548 45.8567C47.374 44.5567 46.2218 43.1442 45.1829 41.3846C44.6739 40.485 44.1755 39.5491 43.8462 38.1755C43.7677 37.8265 43.7029 37.4401 43.6841 36.9981C43.6769 36.7736 43.6763 36.5416 43.6994 36.2903C43.708 36.1677 43.7262 36.0381 43.7458 35.9101C43.7545 35.8467 43.7695 35.7797 43.7822 35.7152L43.8185 35.5482C43.9451 35.0268 44.0688 34.498 44.2096 33.9964C44.7607 31.9664 45.4151 30.0628 46.1018 28.1822C46.8015 26.3071 47.5314 24.4946 48.3439 22.6813L51.105 24.8915Z" fill="#FFC3BD"/>
<path d="M49.3541 43.7901L50.842 44.4485L49.5923 47.2887C49.5923 47.2887 48.4999 46.6241 48.2812 45.2711L49.3541 43.7901Z" fill="#FFC3BD"/>
<path d="M52.8687 45.5466L51.4201 47.7354L49.5898 47.2887L50.8395 44.4485L52.8687 45.5466Z" fill="#FFC3BD"/>
<path d="M58.2164 9.36953C58.2505 9.59561 58.3667 9.75437 58.4763 9.72441C58.5859 9.69445 58.647 9.48705 58.613 9.26097C58.579 9.0349 58.4627 8.87613 58.3531 8.9061C58.2436 8.93645 58.1824 9.14385 58.2164 9.36953Z" fill="#263238"/>
<path d="M58.3516 9.75867C58.3516 9.75867 58.9287 10.9579 59.4426 11.4716C59.2026 11.9261 58.6731 11.8938 58.6731 11.8938L58.3516 9.75867Z" fill="#ED847E"/>
<path d="M57.4167 8.28314C57.3922 8.28314 57.368 8.27108 57.3486 8.24734C57.308 8.19637 57.3054 8.11076 57.3432 8.0559C57.7201 7.50569 58.1772 7.60335 58.1968 7.60802C58.2514 7.62048 58.2883 7.69052 58.279 7.76406C58.2695 7.8376 58.2173 7.88663 58.1637 7.87496C58.1487 7.87184 57.7911 7.80103 57.4903 8.23956C57.4706 8.26875 57.4438 8.28314 57.4167 8.28314Z" fill="#263238"/>
<path d="M53.4461 12.5479C53.75 14.639 54.0532 18.471 52.9688 19.8664C52.9688 19.8664 53.3924 21.9879 56.2727 21.9879C59.4397 21.9879 57.7863 19.8668 57.7863 19.8668C56.0579 19.31 56.1026 17.5796 56.4036 15.955L53.4461 12.5479Z" fill="#FFC3BD"/>
<path d="M52.5358 20.3357C52.3071 19.9271 52.0553 19.4594 52.5761 19.3127C53.1492 19.1516 56.2856 18.987 57.3671 19.2897C58.4486 19.5925 58.1421 20.4213 58.1421 20.4213L52.5358 20.3357Z" fill="white"/>
<path d="M42.9852 116.828C43.1977 116.89 43.4103 116.906 43.5127 116.789C43.5556 116.74 43.5989 116.645 43.5614 116.475C43.5418 116.385 43.4982 116.318 43.4322 116.275C43.1461 116.091 42.4885 116.453 42.4606 116.468C42.4424 116.478 42.4303 116.502 42.4297 116.529C42.4291 116.555 42.4401 116.58 42.458 116.592C42.5583 116.657 42.7715 116.765 42.9852 116.828ZM43.3298 116.371C43.3515 116.377 43.3713 116.386 43.3887 116.397C43.4285 116.423 43.4533 116.461 43.4648 116.513C43.4916 116.634 43.4582 116.673 43.4472 116.685C43.3333 116.816 42.9102 116.696 42.6123 116.535C42.8144 116.439 43.1415 116.316 43.3298 116.371Z" fill="#407BFF"/>
<path d="M42.469 116.597C42.4771 116.599 42.4854 116.599 42.4938 116.596C42.7332 116.501 43.2457 116.01 43.252 115.686C43.2532 115.627 43.2379 115.52 43.1237 115.467C43.0495 115.432 42.9748 115.44 42.9013 115.491C42.6181 115.686 42.4393 116.478 42.4318 116.511C42.4266 116.535 42.4312 116.561 42.4442 116.578C42.4511 116.587 42.4598 116.594 42.469 116.597ZM43.0686 115.586C43.0758 115.588 43.0833 115.591 43.0905 115.594C43.1525 115.623 43.1516 115.664 43.1513 115.682C43.1479 115.873 42.8096 116.259 42.5616 116.415C42.6236 116.187 42.7652 115.736 42.9466 115.611C42.9884 115.582 43.0282 115.574 43.0686 115.586Z" fill="#407BFF"/>
<path d="M58.6043 118.228C58.8763 118.228 59.139 118.177 59.227 118.013C59.2579 117.955 59.2821 117.857 59.2227 117.717C59.1895 117.638 59.1359 117.585 59.0638 117.559C58.711 117.429 57.9707 117.999 57.9393 118.023C57.9211 118.037 57.9113 118.065 57.9148 118.093C57.9182 118.121 57.9341 118.142 57.9546 118.148C58.0898 118.184 58.3511 118.228 58.6043 118.228ZM58.9403 117.673C58.9758 117.673 59.0084 117.678 59.0372 117.689C59.0837 117.706 59.1157 117.737 59.1356 117.784C59.171 117.868 59.1581 117.909 59.1454 117.933C59.0467 118.118 58.5112 118.122 58.1175 118.047C58.3139 117.911 58.6929 117.673 58.9403 117.673Z" fill="#407BFF"/>
<path d="M57.9645 118.149C57.9717 118.149 57.9783 118.147 57.985 118.143C58.2408 117.988 58.7472 117.37 58.7086 117.047C58.6993 116.971 58.6595 116.877 58.5217 116.858C58.4187 116.844 58.3256 116.883 58.2434 116.974C57.974 117.272 57.9169 118.042 57.9143 118.075C57.9126 118.099 57.9204 118.122 57.9351 118.136C57.944 118.145 57.9541 118.149 57.9645 118.149ZM58.4813 116.99C58.4911 116.99 58.5012 116.991 58.5116 116.992C58.6019 117.005 58.6076 117.052 58.6094 117.068C58.6324 117.262 58.2884 117.748 58.0274 117.96C58.0545 117.735 58.13 117.274 58.3071 117.078C58.3605 117.019 58.4179 116.99 58.4813 116.99Z" fill="#407BFF"/>
<path d="M42.3766 116.162L40.0503 115.482C39.9655 115.457 39.8796 115.515 39.8435 115.622L39.036 117.985C38.9524 118.231 39.0631 118.518 39.2595 118.571C40.0748 118.789 40.4795 118.84 41.5027 119.139C42.132 119.323 43.553 119.79 44.4222 120.044C45.2722 120.292 45.5909 119.171 45.252 118.962C43.7321 118.025 43.097 117.2 42.6858 116.432C42.6111 116.293 42.5006 116.198 42.3766 116.162Z" fill="#263238"/>
<path d="M57.7407 117.75H55.4269C55.3404 117.75 55.2654 117.831 55.2463 117.945L54.8279 120.486C54.7846 120.75 54.9328 121 55.1327 120.995C55.9673 120.976 57.1735 120.91 58.2224 120.91C59.449 120.91 60.5083 121 61.9468 121C62.8167 121 63.0581 119.814 62.6938 119.706C61.0363 119.217 59.6831 119.165 58.2506 117.973C58.0955 117.843 57.9236 117.75 57.7407 117.75Z" fill="#263238"/>
<path d="M58.5039 20.5691C60.1475 20.3388 61.8494 20.0497 63.4962 19.6979C65.1413 19.3403 66.7976 18.9173 68.2624 18.2578C68.4446 18.1757 68.6183 18.0862 68.7899 17.9955C68.9006 17.9364 69.0437 17.8441 69.2049 17.7208C69.5227 17.4788 69.872 17.1881 70.2137 16.8819C70.8995 16.2628 71.5966 15.6067 72.2873 14.9347L76.4718 10.8774L77.5329 12.4767C76.3544 14.2292 75.1307 15.8954 73.841 17.5044C73.1932 18.3049 72.5365 19.0975 71.8311 19.8598C71.4758 20.2419 71.1196 20.6244 70.7029 20.9956C70.4975 21.18 70.2642 21.3746 69.9833 21.5618C69.7595 21.7054 69.5354 21.8431 69.3136 21.9665C68.4259 22.4665 67.5477 22.826 66.671 23.1431C65.7954 23.4611 64.9198 23.7144 64.0456 23.9408C62.2889 24.3848 60.562 24.6985 58.7655 24.8879L58.5039 20.5691Z" fill="#FFC3BD"/>
<path d="M49.1793 20.5127C47.1936 21.1272 43.8594 34.4299 43.8594 34.4299L47.1039 35.8856C47.1039 35.8856 50.4154 29.2683 51.5387 26.0775C52.7157 22.7338 51.2097 19.8847 49.1793 20.5127Z" fill="#263238"/>
<path d="M47.6651 35.2322C47.6651 35.2322 44.4866 34.4143 43.7638 33.8061C43.5092 34.3022 43.1962 36.1027 43.412 36.6334C43.6277 37.1642 46.5789 37.9311 46.9813 37.6183C47.3836 37.3054 47.6651 35.2322 47.6651 35.2322Z" fill="#263238"/>
<path opacity="0.2" d="M47.6651 35.2322C47.6651 35.2322 44.4866 34.4143 43.7638 33.8061C43.5092 34.3022 43.1962 36.1027 43.412 36.6335C43.6277 37.1642 46.5789 37.9312 46.9813 37.6183C47.3836 37.3055 47.6651 35.2322 47.6651 35.2322Z" fill="#FAFAFA"/>
<path d="M61.0454 20.6598C61.0454 20.6598 63.3004 24.0965 61.1708 45.3676C57.7564 45.3676 51.5 45.3676 49.8385 45.3676C49.7604 43.0204 50.8534 31.571 49.1758 20.5123C49.1758 20.5123 51.1182 19.9862 52.9695 19.866C54.4175 19.7718 56.5137 19.7096 57.7867 19.8664C59.4646 20.073 61.0454 20.6598 61.0454 20.6598Z" fill="#263238"/>
<path d="M57.0377 25.2097C59.0709 28.0382 69.2611 22.396 69.2611 22.396L67.6267 18.148C67.6267 18.148 61.253 19.936 58.6331 19.8644C55.3966 19.7757 55.4898 23.0564 57.0377 25.2097Z" fill="#263238"/>
<path d="M67.1211 18.0667C67.1211 18.0667 68.7434 21.8443 68.8755 22.9793C69.3202 22.9143 70.5338 22.0552 70.6901 21.4878C70.8464 20.9205 69.3441 17.4083 68.9055 17.2025C68.4671 16.9966 67.1211 18.0667 67.1211 18.0667Z" fill="#263238"/>
<path opacity="0.2" d="M67.1211 18.0667C67.1211 18.0667 68.7434 21.8443 68.8755 22.9793C69.3202 22.9143 70.5338 22.0552 70.6901 21.4878C70.8464 20.9205 69.3441 17.4083 68.9055 17.2025C68.4671 16.9966 67.1211 18.0667 67.1211 18.0667Z" fill="#FAFAFA"/>
<path d="M76.418 10.9159L77.8724 8.62518L79.4249 10.9451C79.4249 10.9451 78.4691 13.1144 76.9469 12.7724L76.418 10.9159Z" fill="#FFC3BD"/>
<path d="M79.8868 7.54303L81.2829 8.62516L79.4236 10.9455L77.8711 8.62516L79.8868 7.54303Z" fill="#FFC3BD"/>
<path d="M52.5595 10.4225C53.1037 13.1627 53.3192 14.804 54.5726 15.9433C56.4579 17.6574 58.8052 15.6904 58.8787 12.7856C58.9448 10.1711 58.0435 6.12899 55.864 5.57683C53.7166 5.03323 52.015 7.68235 52.5595 10.4225Z" fill="#FFC3BD"/>
<path d="M57.0115 0C58.4469 4.09624 50.9671 1.82496 50.9161 5.53987C50.9158 5.54648 50.9149 5.55271 50.9149 5.55932C50.9149 5.56166 50.9143 5.56399 50.9143 5.56671C50.9138 5.71886 50.9201 5.86011 50.929 5.99786C50.7136 5.72781 50.2842 5.43286 49.543 5.83871C49.9513 5.97645 50.4163 6.49437 50.7018 6.8543C50.4076 7.1835 49.9762 7.35899 50.1628 8.94114C50.2522 9.69992 50.8267 10.8871 51.5748 11.923C51.8995 12.6261 52.9577 14.2277 52.9378 14.6117C53.1267 14.6028 53.2888 14.56 53.4067 14.4802C53.4601 14.6919 53.4869 14.8573 53.4682 14.9417C53.8601 15.0429 54.1678 14.9697 54.2036 14.6028C54.5249 14.6425 54.7553 14.5285 54.7654 14.1787C55.0714 14.2394 55.2825 14.1059 55.2672 13.6642C55.9954 13.1249 56.2432 11.9922 56.3761 10.7295C56.5443 9.13181 57.1153 7.65239 58.0399 6.62862C59.4918 5.02117 60.068 2.5207 57.0115 0Z" fill="#263238"/>
<path d="M55.4783 10.2766C55.6164 10.9961 55.9668 11.6144 56.3334 11.9821C56.8848 12.5358 57.2967 11.9907 57.2574 11.149C57.2223 10.3914 56.8929 9.19018 56.2847 8.96566C55.6854 8.74464 55.3202 9.45439 55.4783 10.2766Z" fill="#FFC3BD"/>
<path d="M57.1532 45.368C57.1532 45.368 54.7488 67.2138 53.4288 75.3981C51.9833 84.3606 44.2537 113.092 44.2537 113.092L40.4609 111.984C40.4609 111.984 46.2475 85.0844 47.0723 76.2106C47.9675 66.5799 49.8407 45.368 49.8407 45.368H57.1532Z" fill="#407BFF"/>
<path opacity="0.5" d="M57.1532 45.368C57.1532 45.368 54.7488 67.2138 53.4288 75.3981C51.9833 84.3606 44.2537 113.092 44.2537 113.092L40.4609 111.984C40.4609 111.984 46.2475 85.0844 47.0723 76.2106C47.9675 66.5799 49.8407 45.368 49.8407 45.368H57.1532Z" fill="black"/>
<path opacity="0.3" d="M55.6343 53.1515C52.8541 53.8869 53.1482 67.8757 53.4828 75.0705C54.2846 69.9847 55.4584 60.1984 56.2601 53.2527C56.0755 53.1281 55.8679 53.0892 55.6343 53.1515Z" fill="black"/>
<path d="M61.1716 45.368C61.1716 45.368 61.4634 66.741 61.233 75.4584C60.9933 84.5256 58.646 114.215 58.646 114.215H55.0568C55.0568 114.215 54.925 85.0556 54.7655 76.1507C54.5913 66.4426 53.7227 45.3683 53.7227 45.3683H61.1716V45.368Z" fill="#407BFF"/>
<path opacity="0.5" d="M61.1716 45.368C61.1716 45.368 61.4634 66.741 61.233 75.4584C60.9933 84.5256 58.646 114.215 58.646 114.215H55.0568C55.0568 114.215 54.925 85.0556 54.7655 76.1507C54.5913 66.4426 53.7227 45.3683 53.7227 45.3683H61.1716V45.368Z" fill="black"/>
<path opacity="0.2" d="M57.8995 110.736C57.8984 110.736 57.8972 110.736 57.8958 110.736C57.8759 110.733 57.8615 110.709 57.8635 110.682C58.4959 102.469 59.9873 82.5952 60.1762 75.4564C60.3691 68.1613 60.1941 51.8409 60.1355 47.0127C60.1352 46.9859 60.1511 46.9637 60.171 46.9633H60.1716C60.1912 46.9633 60.2073 46.9847 60.2076 47.0112C60.2659 51.8401 60.4409 68.1624 60.2483 75.46C60.0594 82.6014 58.5678 102.478 57.9353 110.693C57.9336 110.717 57.918 110.736 57.8995 110.736Z" fill="#FAFAFA"/>
<path d="M45.1616 111.384C45.1778 111.388 44.4547 113.234 44.4547 113.234L40.1875 111.988L40.5471 110.257L45.1616 111.384Z" fill="#263238"/>
<path d="M59.3389 112.286C59.3554 112.286 59.1365 114.296 59.1365 114.296H54.7703L54.6523 112.502L59.3389 112.286Z" fill="#263238"/>
</svg>
