<svg width="103" height="121" viewBox="0 0 103 121" fill="none" xmlns="http://www.w3.org/2000/svg">
<path d="M69.3511 4.53577H0.976562L6.28865 97.6552H74.6632L69.3511 4.53577Z" fill="#263238"/>
<path d="M70.6831 4.53577H2.30859L7.62068 97.6552H75.9948L70.6831 4.53577Z" fill="#407BFF"/>
<path opacity="0.5" d="M65.9672 7.66745C45.2639 7.66745 26.1334 7.66745 5.42969 7.66745L9.76905 91.9575C30.4728 91.9575 51.1761 91.9575 71.8798 91.9575L65.9672 7.66745Z" fill="black"/>
<path d="M5.43359 7.66745C9.93316 35.7641 6.84662 63.8608 11.3462 91.9575C32.0499 91.9575 52.7533 91.9575 73.457 91.9575C68.9574 63.8608 72.044 35.7641 67.5444 7.66745C46.8407 7.66745 26.1373 7.66745 5.43359 7.66745Z" fill="white"/>
<g opacity="0.3">
<path d="M18.135 32.9244C20.9444 32.9248 23.3398 35.2099 23.4393 38.0204C23.4874 39.3753 23.0013 40.6481 22.0733 41.6053C21.1457 42.5618 19.8877 43.0876 18.5328 43.0883C15.7219 43.0887 13.375 40.8028 13.2747 37.9927C13.2266 36.637 13.7028 35.3657 14.6174 34.4081C15.5328 33.4516 16.7804 32.9248 18.135 32.9244ZM18.0973 31.8529C14.6988 31.8529 12.0833 34.6083 12.2032 38.0067C12.3234 41.4044 15.1495 44.1609 18.5487 44.1606C21.9468 44.1602 24.6311 41.4063 24.5105 38.0067C24.3917 34.6075 21.4957 31.8532 18.0973 31.8529Z" fill="#407BFF"/>
</g>
<path d="M52.4747 79.0804C45.9349 79.0804 39.3952 79.0804 32.8558 79.0804C32.2213 79.0812 31.7532 79.5951 31.8139 80.2289C31.8742 80.8627 32.4414 81.3767 33.0748 81.3774C39.6146 81.3774 46.1543 81.3774 52.6941 81.3774C53.3283 81.377 53.79 80.8635 53.7297 80.2289C53.6694 79.5947 53.1085 79.0808 52.4747 79.0804Z" fill="#E0E0E0"/>
<path d="M62.9659 74.2512C52.8009 74.2512 42.6359 74.2512 32.4705 74.2512C31.837 74.2508 31.3579 74.7636 31.4056 75.3997C31.4526 76.0338 32.0091 76.5481 32.6425 76.5481C42.8075 76.5481 52.9726 76.5481 63.1379 76.5481C63.7725 76.5481 64.2453 76.035 64.1976 75.3997C64.1506 74.7662 63.6001 74.2508 62.9659 74.2512Z" fill="#E0E0E0"/>
<g opacity="0.3">
<path d="M18.7558 52.8285C21.5667 52.8293 23.9081 55.1133 23.9925 57.9242C24.0335 59.2776 23.5492 60.553 22.626 61.5091C21.704 62.4663 20.4515 62.9921 19.0966 62.9921C16.2876 62.9924 13.9107 60.7058 13.8282 57.8964C13.7875 56.5411 14.28 55.2683 15.2105 54.3119C16.1422 53.3539 17.4009 52.8278 18.7558 52.8285ZM18.7425 51.7563C15.3455 51.7555 12.6557 54.5128 12.7567 57.9105C12.8566 61.3089 15.7259 64.0643 19.1251 64.0643C22.5228 64.064 25.165 61.3097 25.064 57.9105C24.9626 54.5109 22.1424 51.7567 18.7425 51.7563Z" fill="#407BFF"/>
</g>
<path d="M41.5839 36.7406C38.0881 36.7406 34.5928 36.7406 31.097 36.7406C30.4632 36.7406 29.9285 36.2266 29.9034 35.5921C29.8767 34.9572 30.3699 34.444 31.0038 34.4436C34.4995 34.4436 37.9949 34.4436 41.4907 34.4436C42.1252 34.4443 42.6617 34.9575 42.6869 35.5921C42.7124 36.227 42.2181 36.7398 41.5839 36.7406Z" fill="#E0E0E0"/>
<path d="M53.6918 36.7406C51.323 36.7406 48.9539 36.7406 46.5852 36.7406C45.9518 36.7406 45.4175 36.2266 45.3916 35.5921C45.366 34.9572 45.8578 34.444 46.492 34.4436C48.8607 34.4436 51.2298 34.4436 53.5985 34.4436C54.2331 34.4443 54.7689 34.9575 54.7951 35.5921C54.8207 36.227 54.326 36.7398 53.6918 36.7406Z" fill="#E0E0E0"/>
<path d="M59.4129 41.5694C50.0282 41.5694 40.6435 41.5694 31.2588 41.5694C30.6243 41.5691 30.0952 41.0555 30.0748 40.4209C30.0541 39.7868 30.5518 39.2717 31.1856 39.2725C40.5703 39.2725 49.9549 39.2725 59.3396 39.2725C59.9742 39.2728 60.5055 39.7871 60.5255 40.4209C60.5454 41.0551 60.0478 41.5694 59.4129 41.5694Z" fill="#E0E0E0"/>
<g opacity="0.3">
<path d="M19.5597 72.7323C22.3709 72.7327 24.7974 75.0182 25.0357 77.8283C25.1504 79.1825 24.7441 80.4561 23.8846 81.4129C23.0251 82.3701 21.8111 82.8962 20.4558 82.8962C17.6468 82.8951 15.1064 80.6107 14.8699 77.8006C14.7552 76.4453 15.1863 75.1721 16.0761 74.216C16.9652 73.2581 18.2055 72.7327 19.5597 72.7323ZM19.506 71.6604C16.1091 71.6601 13.5113 74.4154 13.7991 77.8146C14.0844 81.2123 17.1636 83.9685 20.5609 83.9685C23.9597 83.9689 26.3921 81.2135 26.1068 77.8146C25.819 74.4158 22.9063 71.659 19.506 71.6604Z" fill="#407BFF"/>
</g>
<path d="M64.238 59.1766C53.404 59.1762 42.5704 59.1762 31.7364 59.1766C31.1023 59.1773 30.6039 59.6909 30.6257 60.3251C30.6472 60.9589 31.1796 61.4728 31.8138 61.4736C42.6477 61.4736 53.4813 61.4736 64.3153 61.4736C64.9491 61.4736 65.4453 60.9607 65.4242 60.3251C65.4027 59.6909 64.8718 59.1759 64.238 59.1766Z" fill="#E0E0E0"/>
<path d="M56.5311 54.3474C48.2202 54.3474 39.9092 54.3474 31.5983 54.3474C30.9649 54.3478 30.4635 54.8617 30.4809 55.4962C30.4979 56.13 31.0274 56.6443 31.6616 56.6447C39.9725 56.6447 48.2835 56.6447 56.5948 56.6447C57.229 56.6447 57.7281 56.1308 57.7107 55.4962C57.6933 54.8606 57.1653 54.3466 56.5311 54.3474Z" fill="#E0E0E0"/>
<path d="M18.6949 41.6379C18.5491 41.3989 18.403 41.1591 18.2565 40.9201C17.3 39.3535 15.2994 37.9557 14.6094 37.5475C14.7829 37.2416 14.9561 36.9356 15.1289 36.6292C15.9466 37.1128 17.6045 38.3057 18.7071 39.7224C20.2815 37.6116 22.5773 35.4374 25.689 33.0924C25.9129 33.3813 26.136 33.6699 26.3595 33.9589C23.0298 36.4646 20.6685 38.7545 19.157 40.963C19.0035 41.188 18.8492 41.4129 18.6949 41.6379Z" fill="#407BFF"/>
<path d="M19.2502 61.5417C19.1029 61.3019 18.9557 61.0633 18.8088 60.8239C17.8468 59.258 15.8551 57.8587 15.168 57.451C15.3437 57.1453 15.5191 56.839 15.6952 56.5333C16.5081 57.0151 18.1553 58.2087 19.2579 59.6265C20.8334 57.5172 23.15 55.3412 26.3094 52.9965C26.5273 53.2851 26.7453 53.5741 26.9632 53.8631C23.5884 56.3683 21.2141 58.6601 19.7101 60.8672C19.5565 61.0918 19.403 61.3171 19.2502 61.5417Z" fill="#407BFF"/>
<path d="M20.5174 81.4935C20.3546 81.2542 20.1918 81.0151 20.0294 80.7758C18.9668 79.2095 16.9 77.8106 16.1914 77.4028C16.3505 77.0968 16.5103 76.7912 16.6709 76.4852C17.5082 76.967 19.2173 78.1599 20.4046 79.5781C21.8539 77.4694 24.0591 75.2931 27.1245 72.9484C27.3539 73.2374 27.5837 73.526 27.8138 73.8146C24.546 76.3202 22.2968 78.612 20.933 80.8194C20.7942 81.0436 20.6555 81.2686 20.5174 81.4935Z" fill="#407BFF"/>
<path d="M43.9178 14.7374C43.2666 16.1571 42.5995 17.5764 41.918 18.9958C44.7015 20.4184 46.7528 23.2108 46.9648 26.4242C48.6039 26.4242 50.2433 26.4242 51.8824 26.4242C51.5542 21.3926 48.3071 17.0111 43.9178 14.7374Z" fill="#407BFF"/>
<path d="M25.1872 26.4246C26.8267 26.4246 28.4658 26.4246 30.1049 26.4246C29.9047 23.3965 31.2659 20.7455 33.517 19.2581C32.5606 17.838 31.5901 16.418 30.6036 14.9979C27.0169 17.3363 24.8697 21.578 25.1872 26.4246Z" fill="#263238"/>
<path d="M37.2692 13.0787C34.7447 13.0783 32.4754 13.7802 30.6055 14.9979C31.5919 16.418 32.5624 17.8384 33.5189 19.2581C34.731 18.4585 36.2025 17.9938 37.8327 17.9945C39.2742 17.9942 40.6698 18.3579 41.9197 18.9965C42.6012 17.5772 43.2684 16.1575 43.9196 14.7382C41.8823 13.6814 39.6068 13.0791 37.2692 13.0787Z" fill="#407BFF"/>
<path opacity="0.5" d="M37.2692 13.0787C34.7447 13.0783 32.4754 13.7802 30.6055 14.9979C31.5919 16.418 32.5624 17.8384 33.5189 19.2581C34.731 18.4585 36.2025 17.9938 37.8327 17.9945C39.2742 17.9942 40.6698 18.3579 41.9197 18.9965C42.6012 17.5772 43.2684 16.1575 43.9196 14.7382C41.8823 13.6814 39.6068 13.0791 37.2692 13.0787Z" fill="#263238"/>
<path d="M43.274 23.0602C43.2765 23.061 38.3108 25.0708 37.7843 25.4434C37.2589 25.8174 37.1667 26.5652 37.5745 27.1161C37.9833 27.6674 38.7407 27.8121 39.268 27.4384C39.8045 27.0655 43.2832 23.0595 43.274 23.0602ZM38.0588 26.7732C37.8583 26.5027 37.9038 26.1334 38.162 25.9495C38.4196 25.7668 38.7947 25.8382 38.996 26.1079C39.1977 26.3787 39.151 26.748 38.892 26.9315C38.6341 27.1139 38.2597 27.0436 38.0588 26.7732Z" fill="#263238"/>
<path d="M49.1587 20.711C49.2452 21.676 48.5263 22.456 47.5629 22.4567C46.5986 22.4563 45.7532 21.676 45.6673 20.711C45.5808 19.7465 46.2864 18.965 47.2498 18.9654C48.2141 18.965 49.0736 19.7479 49.1587 20.711Z" fill="white"/>
<path d="M46.9948 20.3089C47.0088 20.4628 46.896 20.5882 46.7421 20.5867C46.5889 20.5867 46.4524 20.462 46.4387 20.3089C46.4246 20.1557 46.5378 20.0313 46.691 20.031C46.8438 20.0302 46.9804 20.1549 46.9948 20.3089Z" fill="#263238"/>
<path d="M48.3152 20.3089C48.3285 20.4628 48.216 20.5882 48.0624 20.5867C47.9093 20.5867 47.7735 20.462 47.759 20.3089C47.7446 20.1557 47.8586 20.0313 48.0118 20.031C48.1653 20.0302 48.3011 20.1549 48.3152 20.3089Z" fill="#263238"/>
<path d="M47.4933 21.7685C47.4922 21.7685 47.4911 21.7685 47.4899 21.7685C47.1288 21.7685 46.7777 21.6305 46.502 21.3796C46.4458 21.3286 46.4417 21.2413 46.4928 21.185C46.5439 21.1288 46.6312 21.1247 46.6874 21.1758C46.9124 21.3804 47.1973 21.4929 47.4899 21.4929C47.4918 21.4925 47.4918 21.4929 47.4925 21.4929C47.78 21.4929 48.0398 21.3833 48.2248 21.1839C48.2766 21.128 48.3635 21.1247 48.4194 21.1765C48.4753 21.2283 48.4786 21.3156 48.4268 21.3711C48.1893 21.6275 47.8577 21.7685 47.4933 21.7685Z" fill="#263238"/>
<path d="M39.3002 15.5085C39.4105 16.4724 38.7112 17.2545 37.7466 17.2542C36.7816 17.2538 35.9195 16.4735 35.8085 15.5085C35.6983 14.5447 36.3824 13.7625 37.3459 13.7628C38.3105 13.764 39.1903 14.5443 39.3002 15.5085Z" fill="white"/>
<path d="M37.1283 15.1067C37.1461 15.2602 37.0358 15.3846 36.8826 15.3846C36.7287 15.3838 36.5911 15.2606 36.5722 15.1067C36.5544 14.9531 36.664 14.8288 36.8175 14.8288C36.9711 14.8288 37.1098 14.9535 37.1283 15.1067Z" fill="#263238"/>
<path d="M38.4443 15.1067C38.4628 15.2602 38.3518 15.3846 38.1987 15.3846C38.0447 15.3838 37.9071 15.2606 37.8886 15.1067C37.8708 14.9531 37.9815 14.8288 38.1339 14.8288C38.2867 14.8288 38.4262 14.9535 38.4443 15.1067Z" fill="#263238"/>
<path d="M38.4822 16.213H36.7513C36.6751 16.213 36.6133 16.1512 36.6133 16.0754C36.6133 15.9991 36.6751 15.9377 36.7513 15.9377H38.4822C38.5584 15.9377 38.6198 15.9995 38.6198 16.0754C38.6202 16.1512 38.5584 16.213 38.4822 16.213Z" fill="#263238"/>
<path d="M30.5139 20.711C30.6009 21.676 29.8816 22.456 28.9181 22.4567C27.9543 22.4563 27.1088 21.676 27.0226 20.711C26.9375 19.7465 27.6405 18.965 28.6051 18.9654C29.5689 18.965 30.4277 19.7479 30.5139 20.711Z" fill="white"/>
<path d="M28.3503 20.3089C28.3651 20.4628 28.2515 20.5882 28.0976 20.5867C27.9441 20.5867 27.8086 20.462 27.7942 20.3089C27.7798 20.1557 27.8926 20.0313 28.0466 20.031C28.1997 20.0302 28.3374 20.1549 28.3503 20.3089Z" fill="#263238"/>
<path d="M29.6702 20.3089C29.6839 20.4628 29.571 20.5882 29.4175 20.5867C29.2636 20.5867 29.1282 20.462 29.1145 20.3089C29.1004 20.1557 29.2136 20.0313 29.3668 20.031C29.5204 20.0302 29.6558 20.1549 29.6702 20.3089Z" fill="#263238"/>
<path d="M27.9817 21.7685C27.948 21.7685 27.9143 21.7563 27.8877 21.7315C27.8318 21.6797 27.8288 21.5924 27.881 21.5365C28.1208 21.2794 28.4512 21.1421 28.8175 21.1399C29.1801 21.1399 29.5316 21.2783 29.8058 21.5288C29.862 21.5802 29.8661 21.6671 29.8146 21.7234C29.7632 21.7796 29.6763 21.7833 29.62 21.7323C29.3954 21.5273 29.0983 21.4107 28.8134 21.4155C28.5278 21.4155 28.2688 21.5251 28.0827 21.7245C28.0553 21.7537 28.0187 21.7685 27.9817 21.7685Z" fill="#263238"/>
<path d="M55.994 7.90535C54.8393 5.47704 52.1434 3.86791 49.2386 3.86791H43.3219C42.4372 3.86791 41.6132 3.44426 41.2688 2.79491C40.4433 1.24831 38.476 0.14386 36.2423 0.14386C34.012 0.14386 32.1705 1.24794 31.5215 2.79491C31.251 3.44426 30.4751 3.86791 29.5905 3.86791H23.6738C20.7689 3.86791 18.257 5.47704 17.379 7.90535C17.3464 7.99304 17.3357 8.08406 17.3412 8.17508C17.3623 8.54545 17.679 8.87475 18.0809 8.87475H55.4028C55.9019 8.87475 56.212 8.36674 55.994 7.90535ZM36.4932 4.53613C35.5867 4.53613 34.8041 3.79872 34.7523 2.88926C34.7005 1.97943 35.3987 1.24239 36.3052 1.24239C37.2151 1.24239 37.9943 1.9798 38.0461 2.88926C38.0979 3.79909 37.4026 4.53613 36.4932 4.53613Z" fill="#263238"/>
<path d="M94.3549 118.372C94.0063 118.372 93.6641 118.324 93.5335 118.168C93.4876 118.113 93.4462 118.019 93.5072 117.886C93.5416 117.811 93.6045 117.761 93.6944 117.735C94.1329 117.612 95.1434 118.154 95.1863 118.177C95.2111 118.19 95.2266 118.217 95.2251 118.243C95.2236 118.27 95.2059 118.29 95.18 118.296C95.0109 118.33 94.6801 118.372 94.3549 118.372ZM93.865 117.845C93.8199 117.845 93.7784 117.849 93.7422 117.86C93.6848 117.876 93.6467 117.905 93.6264 117.95C93.5897 118.03 93.6105 118.07 93.6297 118.092C93.7758 118.268 94.4637 118.272 94.9609 118.201C94.6942 118.071 94.1828 117.845 93.865 117.845Z" fill="#407BFF"/>
<path d="M95.1698 118.297C95.1609 118.297 95.1517 118.295 95.1428 118.292C94.7983 118.144 94.0827 117.557 94.0979 117.249C94.1016 117.177 94.1427 117.087 94.3177 117.069C94.4476 117.056 94.5719 117.093 94.6869 117.18C95.0643 117.463 95.2194 118.196 95.226 118.227C95.2308 118.25 95.2231 118.272 95.2061 118.285C95.1957 118.293 95.1831 118.297 95.1698 118.297ZM94.3835 117.195C94.371 117.195 94.358 117.196 94.3451 117.197C94.2304 117.209 94.2281 117.254 94.2274 117.27C94.2181 117.454 94.7117 117.916 95.0688 118.117C95.01 117.903 94.8642 117.465 94.6163 117.279C94.5419 117.223 94.4653 117.195 94.3835 117.195Z" fill="#407BFF"/>
<path d="M98.1496 118.233H95.4316L94.457 111.938H97.1754L98.1496 118.233Z" fill="#FFC3BD"/>
<path d="M95.413 117.918H98.3816C98.4926 117.918 98.5976 117.995 98.6339 118.104L99.4409 120.52C99.5245 120.77 99.361 121.008 99.1038 121.003C98.0308 120.985 96.4768 120.922 95.1307 120.922C93.5571 120.922 93.6977 121.008 91.8525 121.008C90.7366 121.008 90.3008 119.88 90.7566 119.778C92.8312 119.313 93.0713 119.263 94.7822 118.13C94.9679 118.007 95.1785 117.918 95.413 117.918Z" fill="#263238"/>
<path opacity="0.2" d="M94.457 111.94L94.9584 115.184H97.6779L97.1762 111.94H94.457Z" fill="black"/>
<path d="M97.8409 50.4172L95.9961 52.2864L98.8307 53.2877C98.8307 53.2877 99.9292 51.7629 99.1626 50.7199L97.8409 50.4172Z" fill="#FFC3BD"/>
<path d="M95.3711 54.8983L98.1994 55.3123L98.8328 53.2881L95.9979 52.2868L95.3711 54.8983Z" fill="#FFC3BD"/>
<path d="M99.0738 27.4106C99.3143 27.926 99.506 28.3678 99.6998 28.8477C99.893 29.3183 100.077 29.7908 100.255 30.2659C100.607 31.2175 100.922 32.1851 101.212 33.1667C101.508 34.1461 101.747 35.1551 101.947 36.1829L102.087 36.9599L102.201 37.7525C102.242 38.0141 102.265 38.2864 102.29 38.5576C102.312 38.8384 102.348 39.0715 102.351 39.4145L102.361 39.894L102.343 40.3184L102.322 40.7388L102.283 41.1347C102.236 41.6675 102.164 42.1673 102.096 42.6735C101.948 43.6732 101.78 44.6485 101.592 45.6176C101.199 47.5519 100.771 49.4445 100.252 51.3478L96.8808 50.684C97.0936 48.8018 97.3174 46.8933 97.4935 45.0145C97.5809 44.0754 97.67 43.1401 97.7229 42.2225C97.7444 41.7688 97.7707 41.3097 97.7707 40.8794L97.7747 40.5538L97.7666 40.2515L97.7603 39.9532L97.7362 39.7105C97.7333 39.5707 97.683 39.3276 97.6537 39.1296C97.6208 38.9221 97.5901 38.7156 97.5409 38.5036L97.407 37.8716L97.2464 37.2345C97.0155 36.3839 96.7565 35.5288 96.4609 34.673C96.1656 33.8179 95.8363 32.9676 95.4896 32.1226C95.3172 31.6997 95.14 31.2782 94.9557 30.8623C94.7751 30.4535 94.5753 30.0143 94.4062 29.658L99.0738 27.4106Z" fill="#263238"/>
<path d="M86.3008 49.0919C86.3008 49.0919 86.7518 69.8996 87.9735 78.1887C89.2449 86.8104 93.8773 114.556 93.8773 114.556H98.4819C98.4819 114.556 96.8288 88.1487 96.3041 79.665C95.7321 70.4161 95.8575 49.0919 95.8575 49.0919H86.3008Z" fill="#407BFF"/>
<path d="M92.7858 112.722C92.7647 112.722 93.2594 114.634 93.2594 114.634H98.8605L98.8213 112.928L92.7858 112.722Z" fill="#263238"/>
<path d="M85.2642 15.3412C85.256 15.5713 85.1276 15.7582 84.977 15.7582C84.8265 15.7582 84.711 15.5717 84.7192 15.3412C84.7273 15.1111 84.8561 14.9246 85.0063 14.9246C85.1569 14.9242 85.2723 15.1107 85.2642 15.3412Z" fill="#263238"/>
<path d="M85.1497 15.7578C85.1497 15.7578 84.5795 17.0858 83.9805 17.7266C84.3741 18.1066 85.0727 17.9331 85.0727 17.9331L85.1497 15.7578Z" fill="#ED847E"/>
<path d="M86.1259 14.0655C86.0985 14.0655 86.0711 14.0573 86.0478 14.0399C85.5712 13.6877 85.0984 13.8616 85.0936 13.8634C85.0233 13.8905 84.946 13.8557 84.9215 13.7861C84.8971 13.7166 84.9345 13.6381 85.0052 13.6111C85.0299 13.6015 85.6223 13.3832 86.2139 13.8205C86.2731 13.8642 86.2839 13.9485 86.238 14.0092C86.2099 14.0459 86.1681 14.0655 86.1259 14.0655Z" fill="#263238"/>
<path d="M92.4628 17.8842C92.0029 19.8726 91.4849 23.5164 92.8295 24.8432C92.8295 24.8432 92.2145 26.8605 88.5197 26.8605C84.4567 26.8605 86.6494 24.8436 86.6494 24.8436C88.8856 24.3141 88.8864 22.6687 88.5545 21.124L92.4628 17.8842Z" fill="#FFC3BD"/>
<path d="M94.2658 25.7763C94.6651 24.9635 95.1061 24.0336 94.2721 23.7421C93.3545 23.4217 88.2822 23.0946 86.5084 23.6962C84.7342 24.2978 85.1731 25.9462 85.1731 25.9462L94.2658 25.7763Z" fill="#407BFF"/>
<path d="M98.1558 25.6239C100.498 26.7035 101.689 34.895 101.689 34.895L96.9718 36.375C96.9718 36.375 95.6187 32.9706 94.9253 29.7105C94.199 26.2947 95.7611 24.5202 98.1558 25.6239Z" fill="#263238"/>
<path d="M69.1634 38.3678L66.9889 36.4974L65.0312 39.3461C65.0312 39.3461 66.7899 40.7554 68.7157 40.1771L69.1634 38.3678Z" fill="#FFC3BD"/>
<path d="M64.1222 35.5921L63.8203 38.407L65.0295 39.3465L66.9871 36.4975L64.1222 35.5921Z" fill="#FFC3BD"/>
<path d="M92.9585 14.8532C92.6851 17.6804 92.6685 19.3439 91.1892 20.7947C88.9644 22.9773 85.5204 21.6827 84.9454 18.8607C84.4278 16.3206 84.9621 12.1241 87.7689 10.9989C90.5347 9.89076 93.232 12.026 92.9585 14.8532Z" fill="#FFC3BD"/>
<path d="M87.1538 15.7578C86.9048 13.805 86.9458 13.065 87.9904 12.6332C86.9074 12.4175 85.9668 12.3864 85.5199 11.7544C85.0729 11.1225 84.9649 9.50373 87.1386 8.76373C86.9381 9.14927 87.5704 9.90444 89.5743 9.21069C91.5786 8.51694 94.4913 8.43998 94.7462 10.475C95.8025 10.105 97.5756 13.3736 95.4995 15.7578C93.7586 17.7573 92.5957 19.1352 92.2535 20.1945C92.1839 20.4099 91.9516 20.5135 91.7466 20.418C91.0221 20.0798 89.733 20.3688 89.1621 20.5246C88.993 20.5708 88.8169 20.4916 88.7407 20.334C88.3703 19.5696 87.3595 17.3707 87.1538 15.7578Z" fill="#263238"/>
<path d="M94.3789 10.7221C94.3789 10.7221 95.2358 9.51149 96.882 10.4117C96.882 10.4117 95.4756 10.3299 94.3789 10.7221Z" fill="#263238"/>
<path d="M94.5195 10.9837C94.5195 10.9837 95.7131 10.2511 94.7819 8.84772C94.7819 8.84772 94.8903 10.0473 94.5195 10.9837Z" fill="#263238"/>
<path d="M88.554 15.8404C88.4319 16.5722 88.0197 17.2441 87.5643 17.6733C86.8794 18.319 86.2859 17.8609 86.2663 17.0277C86.2485 16.2773 86.5834 15.0375 87.3719 14.7037C88.1485 14.3752 88.6939 15.0038 88.554 15.8404Z" fill="#FFC3BD"/>
<path opacity="0.3" d="M86.6836 60.6544C86.95 66.863 87.3681 74.0706 87.9749 78.1887C88.208 79.7575 88.5484 81.9553 88.9554 84.5046C90.5908 75.5802 91.5676 64.0806 86.6836 60.6544Z" fill="black"/>
<path d="M84.6444 118.372C84.2959 118.372 83.9606 118.324 83.8533 118.168C83.8156 118.113 83.7879 118.019 83.8685 117.886C83.9137 117.811 83.9843 117.761 84.0779 117.735C84.5342 117.612 85.4654 118.154 85.505 118.177C85.528 118.19 85.5394 118.217 85.5343 118.243C85.5291 118.27 85.508 118.29 85.4814 118.296C85.3063 118.33 84.9696 118.372 84.6444 118.372ZM84.2322 117.845C84.1871 117.845 84.1449 117.849 84.1072 117.86C84.0472 117.876 84.005 117.905 83.978 117.95C83.9296 118.03 83.9447 118.07 83.9603 118.092C84.0805 118.268 84.7676 118.272 85.2756 118.201C85.0281 118.071 84.5497 117.845 84.2322 117.845Z" fill="#407BFF"/>
<path d="M85.4686 118.297C85.4597 118.297 85.4508 118.295 85.4423 118.292C85.1197 118.144 84.4903 117.557 84.551 117.249C84.565 117.177 84.6194 117.087 84.797 117.069C84.9287 117.056 85.0475 117.093 85.15 117.18C85.486 117.463 85.5333 118.196 85.5348 118.227C85.5363 118.25 85.5252 118.272 85.5063 118.285C85.4952 118.293 85.4819 118.297 85.4686 118.297ZM84.8444 117.195C84.8318 117.195 84.8188 117.196 84.8055 117.197C84.6893 117.209 84.6805 117.254 84.6775 117.27C84.6412 117.454 85.0667 117.916 85.3942 118.117C85.3668 117.903 85.2854 117.465 85.0649 117.279C84.9987 117.223 84.9261 117.195 84.8444 117.195Z" fill="#407BFF"/>
<path d="M88.4579 118.233H85.7399L85.6914 111.938H88.4094L88.4579 118.233Z" fill="#FFC3BD"/>
<path d="M85.7702 117.918H88.7388C88.8498 117.918 88.9434 117.995 88.9637 118.104L89.4155 120.52C89.4621 120.77 89.2638 121.008 89.0074 121.003C87.9373 120.985 86.3922 120.922 85.0461 120.922C83.4725 120.922 82.1102 121.008 80.265 121.008C79.1491 121.008 78.8794 119.88 79.35 119.778C81.4927 119.313 83.2309 119.263 85.1083 118.13C85.3118 118.007 85.5353 117.918 85.7702 117.918Z" fill="#263238"/>
<path opacity="0.2" d="M85.6914 111.94L85.7158 115.184H88.435L88.4105 111.94H85.6914Z" fill="black"/>
<path d="M81.4522 49.0919C81.4522 49.0919 80.3603 69.4149 80.3633 77.704C80.3662 86.3257 84.7282 114.556 84.7282 114.556H89.3328C89.3328 114.556 88.1337 86.8297 88.6376 78.3622C89.1867 69.1311 91.8588 49.0923 91.8588 49.0923H81.4522V49.0919Z" fill="#407BFF"/>
<path d="M83.9038 112.722C83.8827 112.722 84.0962 114.634 84.0962 114.634H89.6973L89.9089 112.928L83.9038 112.722Z" fill="#263238"/>
<path d="M82.4406 25.5976C82.4406 25.5976 77.8075 37.3004 79.8255 57.5264C84.2059 57.5264 94.6107 57.5264 96.7422 57.5264C96.9213 55.2946 95.1497 35.9728 97.6735 25.4574C97.6735 25.4574 95.1993 24.9572 92.8284 24.8428C90.9739 24.7533 88.2866 24.6941 86.6483 24.8432C84.4882 25.0397 82.4406 25.5976 82.4406 25.5976Z" fill="#263238"/>
<path opacity="0.2" d="M80.049 36.1752C79.7974 38.04 79.5902 40.1379 79.457 42.4541C82.7426 39.4349 83.8674 31.9128 83.8674 31.9128L80.049 36.1752Z" fill="black"/>
<path d="M84.1828 31.1698C83.5194 32.9014 82.8449 34.5683 82.1052 36.2447C81.3771 37.919 80.5978 39.5777 79.7387 41.2312L79.4101 41.8517L79.2429 42.1618C79.1726 42.2861 79.1796 42.2961 78.9858 42.6161C78.6735 43.1227 78.1669 43.5878 77.6489 43.8597C77.1317 44.1346 76.6255 44.2515 76.2026 44.297C75.3475 44.3807 74.7093 44.2608 74.1299 44.1294C73.5545 43.9903 73.0443 43.8127 72.5611 43.6196C71.5965 43.2318 70.7403 42.7682 69.9085 42.2865C69.493 42.0463 69.0916 41.7899 68.6953 41.5287C68.2935 41.2623 67.922 41.007 67.5039 40.7036L69.5041 37.6419C70.9412 38.4052 72.5522 39.1592 73.9978 39.5906C74.3571 39.6987 74.7063 39.7797 75.0075 39.8208C75.3028 39.8656 75.5666 39.85 75.6017 39.8204C75.6225 39.8104 75.5525 39.7982 75.4293 39.86C75.3013 39.914 75.1333 40.0642 75.0526 40.1875C74.9761 40.3166 75.0767 40.1231 75.1081 40.0483L75.2432 39.759L75.51 39.1762C76.2119 37.6086 76.8612 35.9828 77.4954 34.347C78.1185 32.7135 78.7427 31.0433 79.3099 29.4134L84.1828 31.1698Z" fill="#263238"/>
<path d="M86.0259 26.8245C86.8895 29.244 80.7634 38.9857 80.7634 38.9857L77.1289 35.3885C77.1289 35.3885 78.0591 32.3257 79.2849 28.6431C80.49 25.0197 85.2001 24.5117 86.0259 26.8245Z" fill="#263238"/>
</svg>
