<svg width="56" height="56" viewBox="0 0 56 56" fill="none" xmlns="http://www.w3.org/2000/svg">
<rect width="56" height="56" rx="8" fill="#1AA053" fill-opacity="0.2"/>
<path d="M35.5674 23.2348C35.9945 22.8077 35.9945 22.1152 35.5674 21.688C35.1402 21.2609 34.4477 21.2609 34.0206 21.688L24.3419 31.3667C24.2753 31.4333 24.2194 31.4441 24.1872 31.4441C24.1549 31.4441 24.0991 31.4333 24.0325 31.3667L20.983 28.3173C20.5559 27.8901 19.8634 27.8901 19.4362 28.3173C19.0091 28.7444 19.0091 29.4369 19.4362 29.8641L22.4857 32.9135C23.4432 33.871 24.9312 33.871 25.8887 32.9135L35.5674 23.2348Z" fill="#34A853"/>
<path fill-rule="evenodd" clip-rule="evenodd" d="M27.5023 11.823C18.8435 11.823 11.8242 18.8423 11.8242 27.5011C11.8242 36.1598 18.8435 43.1792 27.5023 43.1792C36.1611 43.1792 43.1804 36.1598 43.1804 27.5011C43.1804 18.8423 36.1611 11.823 27.5023 11.823ZM14.0117 27.5011C14.0117 20.0504 20.0517 14.0105 27.5023 14.0105C34.9529 14.0105 40.9929 20.0504 40.9929 27.5011C40.9929 34.9517 34.9529 40.9917 27.5023 40.9917C20.0517 40.9917 14.0117 34.9517 14.0117 27.5011Z" fill="#34A853"/>
</svg>
