<svg width="78" height="78" viewBox="0 0 78 78" fill="none" xmlns="http://www.w3.org/2000/svg">
<circle cx="38.7764" cy="38.7764" r="38.7764" fill="#34A853" fill-opacity="0.1"/>
<g clip-path="url(#clip0_1478_34323)">
<path d="M45.6667 24V21.3333C45.6667 20.5973 46.2627 20 47 20C47.7373 20 48.3333 20.5973 48.3333 21.3333V24C48.3333 24.736 47.7373 25.3333 47 25.3333C46.2627 25.3333 45.6667 24.736 45.6667 24ZM29.6667 25.3333C30.404 25.3333 31 24.736 31 24V21.3333C31 20.5973 30.404 20 29.6667 20C28.9293 20 28.3333 20.5973 28.3333 21.3333V24C28.3333 24.736 28.9293 25.3333 29.6667 25.3333ZM47 42.6667V38.6667H45.6667V44H49.6667V42.6667H47ZM40.3333 43.3333C40.3333 46.6413 43.0253 49.3333 46.3333 49.3333C49.6413 49.3333 52.3333 46.6413 52.3333 43.3333C52.3333 40.0253 49.6413 37.3333 46.3333 37.3333C43.0253 37.3333 40.3333 40.0253 40.3333 43.3333ZM55 43.3333C55 48.12 51.12 52 46.3333 52C41.5467 52 37.6667 48.12 37.6667 43.3333C37.6667 38.5467 41.5467 34.6667 46.3333 34.6667C51.12 34.6667 55 38.5467 55 43.3333ZM36.0173 48H25.6667V30.6667H51V33.0173C51.9693 33.4573 52.8653 34.0267 53.6667 34.708V22.6667H49.6667V24C49.6667 25.7547 47.9627 27.1187 46.1227 26.5253C45.0147 26.168 44.3333 25.044 44.3333 23.88V22.6667H32.3333V24C32.3333 25.7547 30.6293 27.1187 28.7893 26.5253C27.6813 26.168 27 25.044 27 23.88V22.6667H23V50.6667H37.708C37.0267 49.8653 36.4573 48.9693 36.0173 48Z" fill="#34A853"/>
</g>
<defs>
<clipPath id="clip0_1478_34323">
<rect width="32" height="32" fill="white" transform="translate(23 20)"/>
</clipPath>
</defs>
</svg>
